<?xml version="1.0" encoding="utf-8"?>
<!-- Generator: Adobe Illustrator 16.0.0, SVG Export Plug-In . SVG Version: 6.00 Build 0)  -->
<!DOCTYPE svg PUBLIC "-//W3C//DTD SVG 1.1//EN" "http://www.w3.org/Graphics/SVG/1.1/DTD/svg11.dtd">
<svg class="w-16 h-16" viewbox="0 0 48 48" fill="none" xmlns="http://www.w3.org/2000/svg">
<g>
	<defs>
		<path id="SVGID_1_" d="M69.84,3.6c-0.32,0.08-0.64,0.16-0.96,0.24c0,0.08,0,0.16,0,0.24c-0.16,0-0.32,0-0.48,0
			C68.32,4.24,68.24,4.4,68.16,4.56C67.84,4.64,67.52,4.72,67.2,4.8c-0.08,0.16-0.16,0.32-0.24,0.48C66.48,5.44,66,5.6,65.52,5.76
			c-0.08,0.16-0.16,0.32-0.24,0.48c-0.159,0-0.319,0-0.479,0c0,0.079,0,0.159,0,0.239c-0.16,0-0.32,0-0.48,0
			C64.24,6.64,64.16,6.8,64.08,6.96c-0.32,0.08-0.641,0.16-0.96,0.24C63.04,7.36,62.96,7.52,62.88,7.68c-0.16,0-0.32,0-0.48,0
			c0,0.08,0,0.16,0,0.24c-0.16,0-0.319,0-0.479,0c-0.08,0.16-0.16,0.32-0.24,0.479c-0.16,0-0.32,0-0.479,0
			c-0.08,0.16-0.16,0.32-0.24,0.48C60.64,8.96,60.32,9.04,60,9.12c-0.08,0.16-0.16,0.319-0.24,0.479c-0.16,0-0.32,0-0.48,0
			C59.2,9.76,59.12,9.92,59.04,10.08c-0.16,0-0.32,0-0.48,0c-0.08,0.16-0.16,0.319-0.24,0.479c-0.159,0-0.319,0-0.479,0
			c-0.08,0.16-0.16,0.32-0.24,0.48c-0.16,0-0.32,0-0.479,0c-0.08,0.16-0.16,0.319-0.24,0.479c-0.16,0-0.32,0-0.48,0
			c-0.08,0.16-0.16,0.32-0.239,0.48c-0.16,0-0.32,0-0.48,0c0,0.08,0,0.16,0,0.24C55.44,12.32,55.2,12.4,54.96,12.48
			c-0.08,0.16-0.16,0.32-0.24,0.48c-0.16,0-0.32,0-0.48,0c-0.159,0.24-0.319,0.479-0.479,0.72c-0.16,0-0.32,0-0.48,0
			C53.2,13.84,53.12,14,53.04,14.16c-0.16,0-0.32,0-0.48,0c-0.16,0.239-0.32,0.479-0.479,0.72c-0.16,0-0.32,0-0.48,0
			c-0.16,0.24-0.32,0.479-0.479,0.72c-0.16,0-0.32,0-0.48,0c-0.16,0.24-0.32,0.48-0.479,0.72c-0.16,0-0.32,0-0.48,0
			c-0.16,0.24-0.32,0.48-0.479,0.721c-0.16,0-0.32,0-0.48,0c-0.32,0.398-0.64,0.8-0.96,1.2c-0.16,0-0.32,0-0.48,0
			c-0.319,0.399-0.64,0.8-0.96,1.199c-0.159,0-0.319,0-0.479,0C45.36,20,44.88,20.56,44.4,21.12c-0.159,0-0.319,0-0.479,0
			c-0.72,0.8-1.44,1.6-2.16,2.399c-0.4,0.32-0.8,0.641-1.2,0.96c0,0.16,0,0.32,0,0.48C40,25.44,39.44,25.92,38.88,26.4
			c0,0.16,0,0.32,0,0.48c-0.24,0.16-0.48,0.32-0.72,0.479c0,0.16,0,0.32,0,0.48c-0.24,0.16-0.48,0.32-0.721,0.479
			c0,0.16,0,0.32,0,0.48c-0.16,0.08-0.319,0.16-0.479,0.24c0,0.16,0,0.319,0,0.479c-0.16,0.08-0.32,0.16-0.48,0.24
			c0,0.16,0,0.32,0,0.48c-0.08,0-0.16,0-0.239,0c0,0.159,0,0.319,0,0.479c-0.08,0-0.16,0-0.24,0c0,0.16,0,0.32,0,0.48
			c-0.08,0-0.16,0-0.24,0c0,0.159,0,0.319,0,0.479c-0.08,0-0.16,0-0.24,0c0,0.16,0,0.32,0,0.48c-0.08,0-0.16,0-0.24,0
			c0,0.159,0,0.319,0,0.479c-0.239,0.16-0.479,0.32-0.72,0.48c-0.848,0.865-1.8,1.787-2.399,2.88c-0.08,0-0.16,0-0.24,0
			c0.071-2.058,0.803-3.797,1.439-5.28c0.16-0.72,0.32-1.44,0.48-2.16c0.08,0,0.16,0,0.24,0c0.08-0.319,0.159-0.64,0.239-0.96
			c0.08,0,0.16,0,0.24,0c0-0.24,0-0.479,0-0.72c0.08,0,0.16,0,0.24,0c0.16-0.48,0.32-0.96,0.479-1.44c0.08,0,0.16,0,0.24,0
			c0-0.16,0-0.319,0-0.479c0.08,0,0.16,0,0.24,0c0-0.16,0-0.32,0-0.48c0.08,0,0.16,0,0.24,0C36.16,24,36.32,23.52,36.48,23.04
			c0.16-0.08,0.32-0.16,0.48-0.24c0.16-0.48,0.319-0.96,0.479-1.44c0.08,0,0.16,0,0.24,0c0.08-0.239,0.16-0.479,0.24-0.72
			c0.16-0.08,0.32-0.16,0.479-0.24c0.08-0.319,0.16-0.64,0.24-0.96c0.16-0.08,0.32-0.16,0.48-0.239c0-0.16,0-0.32,0-0.48
			c0.239-0.16,0.479-0.32,0.72-0.479c0-0.16,0-0.32,0-0.48c0.16-0.08,0.32-0.16,0.479-0.24c0-0.16,0-0.319,0-0.479
			c0.16-0.08,0.32-0.16,0.48-0.24c0.08-0.24,0.16-0.48,0.24-0.72c0.239-0.16,0.479-0.32,0.72-0.48c0-0.16,0-0.319,0-0.479
			c0.32-0.24,0.64-0.48,0.96-0.721c0-0.159,0-0.319,0-0.479c0.4-0.32,0.8-0.64,1.2-0.96c0-0.16,0-0.32,0-0.48
			c0.64-0.56,1.28-1.12,1.92-1.68c0-0.16,0-0.32,0-0.48c0.8-0.72,1.6-1.439,2.4-2.159C48.96,7.36,49.68,6.56,50.4,5.76
			c0.16,0,0.32,0,0.48,0c0.08-0.16,0.16-0.32,0.24-0.479C51.76,4.72,52.4,4.16,53.04,3.6c0-0.08,0-0.16,0-0.24
			c-6.799,0-13.602,0-20.4,0C32.4,4,32.16,4.64,31.92,5.281c-0.08,0-0.16,0-0.24,0c0,0.159,0,0.319,0,0.479c-0.08,0-0.16,0-0.24,0
			c-0.08,0.4-0.16,0.8-0.239,1.2c-0.08,0-0.16,0-0.24,0C30.88,7.44,30.8,7.92,30.72,8.4c-0.08,0-0.16,0-0.24,0c0,0.16,0,0.32,0,0.48
			c-0.08,0-0.16,0-0.239,0C30.16,9.36,30.08,9.84,30,10.32c-0.08,0-0.16,0-0.24,0c-0.08,0.48-0.16,0.961-0.24,1.44
			c-0.767,1.949-1.265,4.374-1.92,6.48c-0.08,0.88-0.16,1.76-0.24,2.64c-0.08,0-0.159,0-0.239,0c-0.08,1.2-0.16,2.4-0.24,3.6
			c-0.08,0-0.16,0-0.24,0C26.56,26.24,26.48,28,26.4,29.76c0.08,0,0.16,0,0.24,0c0,1.28,0,2.56,0,3.84c0.08,0,0.16,0,0.24,0
			c0,0.641,0,1.28,0,1.92c0.08,0,0.16,0,0.24,0c0,0.48,0,0.96,0,1.44c0.08,0,0.159,0,0.239,0c0,0.319,0,0.64,0,0.96
			c0.08,0,0.16,0,0.24,0c0.08,0.64,0.16,1.28,0.24,1.92c0.08,0,0.16,0,0.24,0c0,0.24,0,0.479,0,0.72c0.08,0,0.16,0,0.239,0
			c0,0.24,0,0.48,0,0.72c0.08,0,0.16,0,0.24,0c0,0.24,0,0.48,0,0.721c0.08,0,0.16,0,0.24,0c0,0.24,0,0.479,0,0.72
			c0.08,0,0.16,0,0.24,0c0,0.561,0,1.12,0,1.68c-0.08,0-0.16,0-0.24,0c-0.366,1.313,0.142,3.062,0.24,4.08c-0.16,0-0.32,0-0.48,0
			C28.48,48.24,28.4,48,28.32,47.76c-0.079,0-0.159,0-0.239,0c0-0.16,0-0.32,0-0.479c-0.08,0-0.16,0-0.24,0
			c-0.16-0.48-0.32-0.961-0.48-1.44c-0.159-0.08-0.319-0.16-0.479-0.24c-0.08-0.319-0.16-0.64-0.24-0.96c-0.08,0-0.16,0-0.24,0
			c0-0.16,0-0.32,0-0.479c-0.08,0-0.159,0-0.239,0c-0.16-0.48-0.32-0.96-0.48-1.44c-0.08,0-0.16,0-0.24,0c0-0.24,0-0.479,0-0.72
			c-0.08,0-0.16,0-0.239,0c0-0.16,0-0.32,0-0.48c-0.08,0-0.16,0-0.24,0c-0.08-0.319-0.16-0.64-0.24-0.96c-0.08,0-0.16,0-0.24,0
			c0-0.24,0-0.479,0-0.72c-0.08,0-0.16,0-0.239,0c0-0.16,0-0.32,0-0.48c-0.08,0-0.16,0-0.24,0c0-0.239,0-0.479,0-0.72
			c-0.08,0-0.16,0-0.24,0c0-0.16,0-0.32,0-0.479c-0.08,0-0.16,0-0.24,0c-0.8-2.721-1.6-5.44-2.399-8.16
			c-0.16-1.28-0.32-2.561-0.48-3.84c-0.08,0-0.16,0-0.24,0c0-0.641,0-1.28,0-1.92c-0.08,0-0.159,0-0.239,0c0-0.96,0-1.921,0-2.881
			c-0.228-0.803-0.552-5.117-0.24-6.239c0.08,0,0.16,0,0.24,0c0.08-1.521,0.159-3.04,0.239-4.561c0.561-2.399,1.12-4.8,1.681-7.2
			c-4.24,0-8.48,0-12.721,0c-1.874,0-4.541-0.293-6,0.24c0,6.24,0,12.481,0,18.72c0.08,0,0.16,0,0.24,0
			c0.08,0.32,0.16,0.641,0.24,0.961c0.08,0,0.16,0,0.24,0c0,0.159,0,0.319,0,0.479C4.24,23.84,4.4,23.92,4.56,24
			c0.16,0.479,0.32,0.96,0.48,1.439C5.2,25.52,5.36,25.6,5.52,25.68C5.6,26,5.68,26.32,5.76,26.64c0.16,0.08,0.32,0.16,0.48,0.24
			C6.32,27.2,6.4,27.52,6.48,27.84C6.64,27.92,6.8,28,6.96,28.08c0.08,0.319,0.16,0.64,0.24,0.96c0.159,0.08,0.319,0.16,0.479,0.24
			c0.08,0.319,0.16,0.64,0.24,0.96C8.08,30.32,8.24,30.4,8.4,30.48c0.08,0.24,0.16,0.48,0.24,0.721c0.08,0,0.16,0,0.24,0
			c0.08,0.319,0.16,0.64,0.24,0.96C9.28,32.24,9.44,32.32,9.6,32.4c0,0.16,0,0.32,0,0.48c0.16,0.08,0.32,0.16,0.48,0.24
			c0,0.16,0,0.319,0,0.479c0.16,0.08,0.319,0.16,0.479,0.24c0,0.16,0,0.32,0,0.479c0.16,0.08,0.32,0.16,0.48,0.24
			c0,0.16,0,0.32,0,0.48c0.16,0.08,0.319,0.16,0.479,0.24c0,0.159,0,0.319,0,0.479c0.16,0.08,0.32,0.16,0.48,0.24
			c0,0.16,0,0.319,0,0.479c0.08,0,0.16,0,0.24,0c0.079,0.24,0.159,0.48,0.239,0.721c0.16,0.08,0.32,0.159,0.48,0.239
			c0,0.16,0,0.32,0,0.48c0.24,0.16,0.479,0.32,0.72,0.479c0,0.16,0,0.32,0,0.48c0.16,0.08,0.32,0.16,0.48,0.24
			c0,0.16,0,0.319,0,0.479c0.239,0.16,0.479,0.32,0.72,0.48c0,0.16,0,0.319,0,0.479c0.24,0.16,0.479,0.32,0.72,0.48
			c0,0.16,0,0.319,0,0.479c0.24,0.16,0.48,0.32,0.72,0.48c0,0.16,0,0.319,0,0.479c0.32,0.24,0.641,0.48,0.96,0.721
			c0,0.159,0,0.319,0,0.479c0.32,0.24,0.641,0.48,0.961,0.72c0,0.16,0,0.32,0,0.48c0.399,0.32,0.8,0.64,1.199,0.96
			c0,0.16,0,0.32,0,0.479c0.641,0.561,1.28,1.119,1.92,1.681c0,0.16,0,0.318,0,0.479c0.721,0.642,1.44,1.28,2.16,1.92
			c0.24,0.32,0.48,0.642,0.721,0.96c0.159,0,0.319,0,0.479,0c0.479,0.562,0.96,1.12,1.44,1.682c0.159,0,0.319,0,0.479,0
			c0.24,0.318,0.48,0.64,0.72,0.96c0.16,0,0.32,0,0.48,0c0.08,0.16,0.16,0.318,0.24,0.479c0.159,0,0.319,0,0.479,0
			c0.16,0.24,0.32,0.48,0.48,0.722c0.319,0.078,0.64,0.159,0.96,0.238c0.08,0.16,0.16,0.32,0.239,0.48
			c0.88,0.32,1.761,0.64,2.641,0.96c0.268,1.04,1.98,2.414,2.88,2.88c0,0.16,0,0.32,0,0.48c-1.68-0.4-3.36-0.802-5.04-1.2
			c0-0.08,0-0.16,0-0.24c-0.24,0-0.48,0-0.72,0c0-0.08,0-0.16,0-0.24c-0.16,0-0.32,0-0.48,0c0-0.08,0-0.16,0-0.239
			c-0.24,0-0.479,0-0.72,0c0-0.079,0-0.159,0-0.239c-0.4-0.08-0.8-0.16-1.2-0.24c0-0.08,0-0.16,0-0.24
			c-0.32-0.08-0.64-0.16-0.96-0.24c0-0.078,0-0.158,0-0.238c-0.24,0-0.479,0-0.72,0c0-0.08,0-0.16,0-0.24
			c-0.32-0.08-0.641-0.16-0.96-0.24c0-0.08,0-0.16,0-0.24c-0.32-0.081-0.641-0.16-0.96-0.24c-0.08-0.16-0.16-0.32-0.24-0.48
			c-0.16,0-0.32,0-0.48,0c0-0.08,0-0.16,0-0.24c-0.159,0-0.319,0-0.479,0c0-0.079,0-0.159,0-0.238c-0.16,0-0.32,0-0.48,0
			c0-0.08,0-0.16,0-0.24c-0.159,0-0.319,0-0.479,0c-0.08-0.16-0.16-0.32-0.24-0.48c-0.32-0.079-0.64-0.16-0.96-0.238
			c-0.08-0.16-0.16-0.32-0.24-0.48c-0.159,0-0.319,0-0.479,0c-0.08-0.16-0.16-0.32-0.24-0.479c-0.16,0-0.32,0-0.479,0
			c-0.08-0.16-0.16-0.32-0.24-0.48c-0.16,0-0.32,0-0.48,0c-0.08-0.16-0.16-0.32-0.239-0.479c-0.16,0-0.32,0-0.48,0
			c-0.16-0.24-0.32-0.48-0.48-0.722c-0.159,0-0.319,0-0.479,0c-0.08-0.16-0.16-0.318-0.24-0.479c-0.16,0-0.319,0-0.479,0
			c-0.08-0.16-0.16-0.32-0.24-0.48c-0.08,0-0.16,0-0.24,0c-0.08-0.16-0.16-0.318-0.24-0.479c-0.159,0-0.319,0-0.479,0
			c-0.24-0.32-0.48-0.642-0.72-0.96c-0.16,0-0.32,0-0.48,0c-0.16-0.24-0.32-0.48-0.479-0.722c-0.08,0-0.16,0-0.24,0
			c-0.08-0.159-0.16-0.318-0.24-0.479c-0.16,0-0.32,0-0.479,0c-0.561-0.64-1.12-1.28-1.681-1.92c-0.16,0-0.319,0-0.479,0
			c-0.641-0.72-1.28-1.44-1.92-2.16C7.44,43.281,6.72,42.64,6,42c0-0.16,0-0.32,0-0.48c-0.16-0.08-0.32-0.16-0.48-0.239
			C4.88,40.56,4.24,39.84,3.6,39.12c-0.08,0-0.16,0-0.24,0c0,6.799,0,13.601,0,20.399C3.84,59.68,4.32,59.84,4.8,60
			c0,0.08,0,0.16,0,0.24c0.24,0,0.479,0,0.72,0c0,0.078,0,0.159,0,0.238c0.32,0.08,0.641,0.16,0.96,0.24c0,0.08,0,0.16,0,0.24
			c0.24,0,0.48,0,0.721,0c0,0.08,0,0.16,0,0.24c0.159,0,0.319,0,0.479,0c0,0.078,0,0.159,0,0.238c0.479,0.08,0.96,0.16,1.44,0.24
			c0,0.08,0,0.16,0,0.24c0.239,0,0.479,0,0.72,0c0,0.08,0,0.16,0,0.24c0.24,0,0.479,0,0.72,0c0,0.08,0,0.159,0,0.238
			c0.24,0,0.48,0,0.72,0c0,0.08,0,0.16,0,0.24c0.24,0,0.48,0,0.721,0c0,0.08,0,0.16,0,0.24c0.24,0,0.479,0,0.72,0
			c0,0.08,0,0.16,0,0.24c0.56,0.08,1.12,0.159,1.68,0.238c0,0.08,0,0.16,0,0.24c0.32,0,0.641,0,0.96,0c0,0.08,0,0.16,0,0.24
			c0.32,0,0.641,0,0.96,0c0,0.08,0,0.16,0,0.24c0.32,0,0.641,0,0.96,0c0,0.08,0,0.159,0,0.239c0.4,0,0.801,0,1.2,0
			c0,0.079,0,0.159,0,0.239c0.4,0,0.8,0,1.2,0c0,0.08,0,0.16,0,0.24c0.479,0,0.96,0,1.44,0c0,0.08,0,0.16,0,0.24
			c0.56,0,1.12,0,1.68,0c0,0.08,0,0.159,0,0.239c0.8,0,1.6,0,2.4,0c0,0.079,0,0.159,0,0.239c1.52,0,3.04,0,4.56,0
			c3.38,0,6.373-0.364,8.88-1.199c0.32,0,0.64,0,0.96,0c0-0.08,0-0.159,0-0.239c0.24,0,0.48,0,0.72,0c0-0.08,0-0.16,0-0.24
			c0.24,0,0.48,0,0.721,0c0-0.08,0-0.16,0-0.24c0.239,0,0.479,0,0.72,0c0-0.08,0-0.16,0-0.24c0.24,0,0.48,0,0.72,0
			c0-0.079,0-0.159,0-0.238c0.96,0,1.92,0,2.88,0c0,0.079,0,0.159,0,0.238c1.12-0.079,2.24-0.159,3.36-0.238
			c0,0.079,0,0.159,0,0.238c-0.837,0.225-1.486,0.82-2.16,1.2c-0.16,0-0.319,0-0.479,0c-0.08,0.16-0.16,0.32-0.24,0.48
			c-0.16,0-0.32,0-0.48,0c0,0.08,0,0.159,0,0.239c-0.159,0-0.319,0-0.479,0c0,0.079,0,0.159,0,0.239c-0.16,0-0.32,0-0.48,0
			c0,0.08,0,0.16,0,0.24c-0.159,0-0.319,0-0.479,0c0,0.08,0,0.16,0,0.24c-0.16,0-0.32,0-0.48,0c0,0.08,0,0.159,0,0.239
			C42.96,66.4,42.48,66.56,42,66.72c0,0.08,0,0.16,0,0.24c-0.24,0-0.48,0-0.721,0c0,0.08,0,0.16,0,0.24
			c-0.319,0.078-0.64,0.159-0.96,0.238c0,0.08,0,0.16,0,0.24c-0.239,0-0.479,0-0.72,0c0,0.08,0,0.16,0,0.24c-0.16,0-0.32,0-0.479,0
			c0,0.08,0,0.16,0,0.24c-0.24,0-0.48,0-0.721,0c0,0.08,0,0.159,0,0.238c-0.159,0-0.319,0-0.479,0c0,0.08,0,0.16,0,0.24
			c-0.48,0.08-0.96,0.16-1.44,0.24c0,0.08,0,0.16,0,0.24c-0.239,0-0.479,0-0.72,0c0,0.08,0,0.159,0,0.238c-0.24,0-0.48,0-0.72,0
			c0,0.08,0,0.16,0,0.24c-0.24,0-0.48,0-0.721,0c0,0.08,0,0.16,0,0.24c-0.56,0.08-1.119,0.16-1.68,0.24c0,0.08,0,0.159,0,0.239
			c-0.64,0.079-1.28,0.159-1.92,0.239c0,0.08,0,0.16,0,0.24c-0.8,0.08-1.6,0.16-2.4,0.24c0,0.08,0,0.159,0,0.239
			c-0.959,0.079-1.92,0.159-2.88,0.239c-1.054,0.305-2.484,0.477-3.84,0.48c-0.8,0-1.6,0-2.399,0
			c-0.364,0.103-1.434,0.439-2.16,0.239c0-0.08,0-0.159,0-0.239c-1.36,0-2.721,0-4.08,0c0-0.08,0-0.16,0-0.24
			c-0.641,0-1.28,0-1.92,0c-1.233-0.348-2.919-0.585-4.08-0.96c-0.32,0-0.641,0-0.96,0c0-0.08,0-0.16,0-0.24
			c-0.8-0.16-1.601-0.319-2.4-0.479c0-0.08,0-0.16,0-0.24c-0.08,0-0.16,0-0.24,0c0,4.318,0,8.641,0,12.96
			c0,1.874-0.293,4.541,0.24,6c6.159,0,12.32,0,18.48,0c0-0.08,0-0.16,0-0.24c0.479-0.16,0.96-0.319,1.439-0.479
			c0-0.08,0-0.16,0-0.24c0.16,0,0.32,0,0.48,0c0.08-0.16,0.16-0.32,0.24-0.48c0.479-0.158,0.96-0.318,1.439-0.479
			c0.08-0.16,0.16-0.32,0.24-0.48c0.16,0,0.32,0,0.479,0c0-0.079,0-0.158,0-0.238c0.16,0,0.32,0,0.48,0
			c0.08-0.16,0.16-0.32,0.24-0.48c0.319-0.08,0.64-0.16,0.96-0.24c0.08-0.16,0.159-0.318,0.239-0.479c0.16,0,0.32,0,0.48,0
			c0-0.08,0-0.16,0-0.24c0.16,0,0.32,0,0.479,0c0.08-0.16,0.16-0.319,0.24-0.479c0.24-0.08,0.48-0.16,0.72-0.24
			c0-0.08,0-0.16,0-0.24c0.32-0.08,0.641-0.16,0.961-0.24c0.079-0.16,0.159-0.318,0.239-0.479c0.16,0,0.32,0,0.48,0
			c0.08-0.16,0.16-0.32,0.24-0.48c0.319-0.08,0.64-0.16,0.96-0.238c0.08-0.16,0.159-0.32,0.239-0.48c0.16,0,0.32,0,0.48,0
			c0.08-0.16,0.16-0.32,0.24-0.48c0.159,0,0.319,0,0.479,0c0.08-0.158,0.16-0.318,0.24-0.479c0.16,0,0.32,0,0.479,0
			c0-0.08,0-0.16,0-0.24c0.24-0.08,0.48-0.16,0.721-0.24c0.08-0.158,0.16-0.318,0.24-0.479c0.159,0,0.319,0,0.479,0
			c0.16-0.24,0.32-0.48,0.48-0.72c0.159,0,0.319,0,0.479,0c0.08-0.16,0.16-0.32,0.24-0.48c0.24-0.08,0.479-0.16,0.72-0.24
			c0-0.078,0-0.159,0-0.238c0.16,0,0.32,0,0.48,0c0.159-0.24,0.319-0.48,0.479-0.722c0.16,0,0.32,0,0.48,0
			c0.16-0.238,0.319-0.479,0.479-0.72c0.16,0,0.32,0,0.48,0c0.16-0.24,0.319-0.479,0.479-0.72c0.16,0,0.32,0,0.48,0
			c0.08-0.16,0.16-0.32,0.24-0.48c0.239-0.08,0.479-0.16,0.72-0.239c0.24-0.319,0.479-0.641,0.72-0.96c0.16,0,0.32,0,0.48,0
			C44.48,74,44.8,73.6,45.12,73.2c0.159,0,0.319,0,0.479,0c0.4-0.48,0.8-0.96,1.2-1.44c0.16,0,0.32,0,0.479,0
			c0.801-0.88,1.601-1.76,2.4-2.64c0.88-0.801,1.76-1.602,2.64-2.4c0-0.16,0-0.319,0-0.479c0.4-0.32,0.801-0.642,1.2-0.96
			c0-0.16,0-0.32,0-0.48c0.24-0.16,0.48-0.32,0.721-0.479c0-0.16,0-0.32,0-0.48c0.159-0.08,0.319-0.16,0.479-0.24
			c0-0.16,0-0.318,0-0.479c0.16-0.08,0.32-0.16,0.48-0.24c0.079-0.24,0.159-0.48,0.239-0.72c0.08,0,0.16,0,0.24,0
			c0.08-0.32,0.16-0.642,0.24-0.96c0.08,0,0.16,0,0.24,0c0.08-0.32,0.159-0.642,0.239-0.96c0.08,0,0.16,0,0.24,0
			c0-0.24,0-0.48,0-0.722c0.16-0.08,0.32-0.16,0.48-0.238c0.67-0.734,2.388-2.202,2.64-3.12c0.16,0,0.32,0,0.48,0
			c-1.497,7.764-5.047,13.954-8.881,19.438c-0.239,0.16-0.479,0.32-0.72,0.48c0,0.16,0,0.318,0,0.479
			c-0.32,0.24-0.64,0.48-0.96,0.722c0,0.158,0,0.318,0,0.479c-0.32,0.24-0.64,0.48-0.96,0.72c0,0.16,0,0.32,0,0.48
			c-0.56,0.479-1.12,0.96-1.68,1.438c0,0.16,0,0.32,0,0.48c-0.641,0.56-1.28,1.12-1.92,1.68c-1.28,1.36-2.561,2.722-3.841,4.08
			c-0.744,0.738-1.851,0.972-2.159,2.16c6.719,0,13.439,0,20.159,0c0.263-0.145,0.318-0.904,0.48-1.2c0.08,0,0.16,0,0.24,0
			c0.08-0.318,0.16-0.64,0.24-0.96c0.079,0,0.159,0,0.239,0c0.08-0.398,0.16-0.8,0.24-1.2c0.08,0,0.16,0,0.24,0
			c0-0.238,0-0.479,0-0.72c0.08,0,0.16,0,0.24,0c0-0.16,0-0.319,0-0.479c0.079,0,0.159,0,0.239,0c0.08-0.48,0.16-0.96,0.24-1.44
			c0.08,0,0.16,0,0.24,0c0-0.24,0-0.479,0-0.72c0.08,0,0.16,0,0.24,0c0-0.24,0-0.48,0-0.722c0.08,0,0.159,0,0.239,0
			c0-0.238,0-0.479,0-0.72c0.08,0,0.16,0,0.24,0c0-0.24,0-0.479,0-0.72c0.08,0,0.16,0,0.24,0c0-0.24,0-0.48,0-0.72
			c0.08,0,0.16,0,0.24,0c0.08-0.562,0.159-1.12,0.239-1.682c0.08,0,0.16,0,0.24,0c0-0.318,0-0.64,0-0.96c0.08,0,0.16,0,0.24,0
			c0-0.318,0-0.64,0-0.96c0.08,0,0.16,0,0.24,0c0-0.398,0-0.8,0-1.2c0.08,0,0.16,0,0.239,0c0-0.318,0-0.64,0-0.96
			c0.08,0,0.16,0,0.24,0c0-0.479,0-0.96,0-1.438c0.08,0,0.16,0,0.24,0c0-0.48,0-0.96,0-1.44c0.08,0,0.16,0,0.24,0
			c0-0.56,0-1.12,0-1.68c0.08,0,0.16,0,0.239,0c0-0.08,0-0.16,0-0.24c0-0.8,0-1.6,0-2.398c0.232-0.823,0.559-5.342,0.24-6.48
			c-0.08,0-0.16,0-0.24,0c-0.079-1.28-0.159-2.56-0.239-3.84c-0.08,0-0.16,0-0.24,0c-0.08-0.8-0.16-1.602-0.24-2.4
			c-0.08,0-0.16,0-0.24,0c-0.079-0.56-0.159-1.12-0.239-1.68c-0.08,0-0.16,0-0.24,0c0-0.24,0-0.48,0-0.72c-0.08,0-0.16,0-0.24,0
			c0-0.24,0-0.48,0-0.722c-0.08,0-0.16,0-0.24,0c0-0.238,0-0.479,0-0.72c-0.08,0-0.159,0-0.239,0c-0.08-0.319-0.16-0.64-0.24-0.96
			c0.08,0,0.16,0,0.24,0c0-1.76,0-3.52,0-5.28c0.08,0,0.159,0,0.239,0c0.08,0.24,0.16,0.48,0.24,0.721c0.08,0,0.16,0,0.24,0
			c0,0.159,0,0.319,0,0.479c0.08,0,0.16,0,0.24,0c0.16,0.48,0.319,0.96,0.479,1.44c0.16,0.08,0.32,0.16,0.48,0.239
			c0.08,0.319,0.16,0.641,0.24,0.961c0.079,0,0.159,0,0.239,0c0,0.158,0,0.318,0,0.479c0.08,0,0.16,0,0.24,0c0,0.16,0,0.32,0,0.48
			c0.08,0,0.16,0,0.24,0c0,0.159,0,0.318,0,0.479c0.08,0,0.16,0,0.24,0c0,0.16,0,0.32,0,0.48c0.079,0,0.159,0,0.239,0
			c0,0.159,0,0.318,0,0.479c0.08,0,0.16,0,0.24,0c0,0.24,0,0.48,0,0.72c0.08,0,0.16,0,0.24,0c0,0.16,0,0.32,0,0.48
			c0.08,0,0.16,0,0.24,0c0.079,0.32,0.159,0.64,0.239,0.96c0.08,0,0.16,0,0.24,0c0,0.24,0,0.479,0,0.72c0.08,0,0.16,0,0.24,0
			c0,0.16,0,0.32,0,0.48c0.08,0,0.16,0,0.24,0c0,0.239,0,0.479,0,0.72c0.08,0,0.159,0,0.239,0c0,0.16,0,0.32,0,0.479
			c0.08,0,0.16,0,0.24,0c0.08,0.479,0.16,0.961,0.24,1.439c0.08,0,0.16,0,0.24,0c0,0.24,0,0.48,0,0.72c0.08,0,0.159,0,0.239,0
			c0,0.24,0,0.48,0,0.722c0.08,0,0.16,0,0.24,0c0,0.238,0,0.479,0,0.72c0.08,0,0.16,0,0.24,0c0,0.32,0,0.64,0,0.96
			c0.08,0,0.16,0,0.24,0c0,0.24,0,0.479,0,0.72c0.08,0,0.16,0,0.239,0c0,0.32,0,0.642,0,0.96c0.08,0,0.16,0,0.24,0
			c0,0.4,0,0.8,0,1.2C71.565,64.835,72,68.562,72,72.72c0,2,0,4,0,6c-0.08,0-0.16,0-0.24,0c0,0.72,0,1.44,0,2.16
			c-0.08,0-0.16,0-0.24,0c0,0.56,0,1.12,0,1.68c-0.08,0-0.16,0-0.24,0c0,0.4,0,0.801,0,1.2c-0.479,1.68-0.96,3.36-1.439,5.04
			c6.239,0,12.48,0,18.72,0c0-6.399,0-12.801,0-19.2c-0.08,0-0.16,0-0.24,0c-0.079-0.318-0.159-0.64-0.239-0.96
			c-0.08,0-0.16,0-0.24,0c0-0.16,0-0.319,0-0.479c-0.16-0.08-0.32-0.16-0.48-0.24c-0.159-0.48-0.319-0.96-0.479-1.44
			c-0.16-0.079-0.32-0.16-0.48-0.238c0-0.16,0-0.32,0-0.48c-0.08,0-0.159,0-0.239,0c0-0.16,0-0.32,0-0.479
			c-0.16-0.08-0.32-0.16-0.48-0.24c-0.08-0.32-0.16-0.642-0.24-0.96c-0.16-0.08-0.319-0.16-0.479-0.24
			c-0.08-0.32-0.16-0.64-0.24-0.96c-0.16-0.08-0.32-0.16-0.479-0.24C84.16,62.32,84.08,62,84,61.68c-0.16-0.08-0.32-0.16-0.48-0.24
			c0-0.159,0-0.318,0-0.479c-0.16-0.08-0.319-0.16-0.479-0.24c0-0.16,0-0.319,0-0.479c-0.16-0.08-0.32-0.16-0.48-0.24
			c-0.08-0.32-0.16-0.642-0.24-0.96c-0.159-0.08-0.319-0.16-0.479-0.24c0-0.16,0-0.32,0-0.479c-0.16-0.08-0.32-0.16-0.48-0.24
			c0-0.16,0-0.32,0-0.48c-0.159-0.08-0.319-0.16-0.479-0.24c0-0.158,0-0.318,0-0.479c-0.16-0.08-0.32-0.16-0.48-0.24
			c0-0.16,0-0.318,0-0.479c-0.08,0-0.16,0-0.239,0c-0.08-0.24-0.16-0.48-0.24-0.722c-0.16-0.078-0.32-0.159-0.48-0.238
			c0-0.16,0-0.32,0-0.48c-0.239-0.16-0.479-0.318-0.72-0.479c0-0.16,0-0.32,0-0.48c-0.16-0.08-0.32-0.16-0.48-0.24
			c0-0.159,0-0.318,0-0.479c-0.239-0.16-0.479-0.32-0.72-0.48c0-0.159,0-0.318,0-0.479c-0.16-0.08-0.319-0.16-0.479-0.24
			c0-0.16,0-0.32,0-0.479c-0.24-0.159-0.48-0.319-0.721-0.479c0-0.16,0-0.32,0-0.479C76,50.17,75.68,49.93,75.36,49.689
			c0-0.16,0-0.318,0-0.479c-0.239-0.16-0.479-0.32-0.72-0.48c0-0.16,0-0.318,0-0.479c-0.4-0.32-0.8-0.642-1.2-0.96
			c0-0.16,0-0.32,0-0.48c-0.479-0.399-0.96-0.8-1.439-1.2c0-0.159,0-0.319,0-0.479c-1.44-1.36-2.88-2.72-4.32-4.08
			c-0.4-0.48-0.8-0.96-1.2-1.44c-0.16,0-0.319,0-0.479,0c-0.32-0.399-0.641-0.8-0.96-1.199c-0.16,0-0.32,0-0.48,0
			c-0.16-0.24-0.32-0.48-0.479-0.721c-0.16,0-0.32,0-0.48,0c-0.08-0.159-0.16-0.319-0.24-0.479c-0.159,0-0.319,0-0.479,0
			c-0.08-0.16-0.16-0.32-0.24-0.48c-0.32-0.08-0.64-0.16-0.96-0.239c0-0.08,0-0.16,0-0.24c-0.16,0-0.32,0-0.479,0
			c-0.08-0.16-0.16-0.32-0.24-0.48c-0.24,0-0.48,0-0.721,0c0-0.08,0-0.16,0-0.239c-0.159,0-0.319,0-0.479,0c0-0.08,0-0.16,0-0.24
			c-0.16,0-0.32,0-0.48,0c-0.239-0.32-0.479-0.641-0.72-0.96c-0.8-0.721-1.6-1.44-2.399-2.16c-0.08,0-0.16,0-0.24,0
			c0-0.08,0-0.16,0-0.24c1.586,0.055,2.7,0.553,3.84,0.96c0.56,0.08,1.12,0.16,1.68,0.24c0,0.08,0,0.16,0,0.24
			c0.24,0,0.48,0,0.721,0c0,0.08,0,0.16,0,0.239c0.159,0,0.319,0,0.479,0c0,0.08,0,0.16,0,0.24c0.24,0,0.48,0,0.72,0
			c0,0.08,0,0.16,0,0.24c0.16,0,0.32,0,0.48,0c0,0.08,0,0.16,0,0.24c0.24,0,0.479,0,0.72,0c0,0.08,0,0.16,0,0.239
			c0.48,0.16,0.96,0.32,1.44,0.48c0,0.08,0,0.16,0,0.24c1.279,0.56,2.56,1.12,3.84,1.68c0.08,0.16,0.16,0.32,0.24,0.48
			c0.319,0.08,0.64,0.159,0.96,0.239c0,0.08,0,0.16,0,0.24c0.239,0.08,0.479,0.16,0.72,0.24c0.08,0.16,0.16,0.32,0.24,0.479
			c0.16,0,0.319,0,0.479,0c0.08,0.16,0.16,0.32,0.24,0.48c0.16,0,0.32,0,0.48,0c0.079,0.16,0.159,0.32,0.239,0.479
			c0.16,0,0.32,0,0.48,0c0,0.08,0,0.16,0,0.24c0.24,0.08,0.479,0.16,0.72,0.24c0.08,0.16,0.16,0.32,0.24,0.479
			c0.16,0,0.32,0,0.479,0c0.08,0.16,0.16,0.32,0.24,0.48c0.24,0.08,0.48,0.16,0.72,0.24c0.24,0.319,0.48,0.64,0.721,0.96
			c0.16,0,0.319,0,0.479,0c0.24,0.319,0.48,0.64,0.72,0.96c0.16,0,0.32,0,0.48,0c0.32,0.399,0.64,0.8,0.96,1.2
			c0.24,0.08,0.48,0.159,0.72,0.239c0.641,0.721,1.28,1.44,1.92,2.16c1.872,1.872,4.661,3.948,6,6.24c0.08,0,0.16,0,0.24,0
			c0-6.8,0-13.601,0-20.4c-0.141-0.254-0.896-0.326-1.2-0.479c0-0.08,0-0.16,0-0.24c-0.239,0-0.479,0-0.72,0c0-0.08,0-0.16,0-0.24
			c-0.16,0-0.32,0-0.479,0c0-0.08,0-0.159,0-0.239c-0.4-0.08-0.801-0.16-1.2-0.24c0-0.08,0-0.16,0-0.24c-0.24,0-0.48,0-0.721,0
			c0-0.08,0-0.16,0-0.24c-0.159,0-0.319,0-0.479,0c0-0.08,0-0.16,0-0.239c-0.24,0-0.48,0-0.72,0c0-0.08,0-0.16,0-0.24
			c-0.24,0-0.48,0-0.721,0c0-0.08,0-0.16,0-0.24c-0.239,0-0.479,0-0.72,0c0-0.08,0-0.16,0-0.24c-0.24,0-0.479,0-0.72,0
			c0-0.08,0-0.16,0-0.239c-0.24,0-0.48,0-0.72,0c0-0.08,0-0.16,0-0.24c-0.24,0-0.48,0-0.721,0c0-0.08,0-0.16,0-0.24
			c-0.56-0.08-1.12-0.16-1.68-0.24c0-0.08,0-0.16,0-0.24c-0.32,0-0.64,0-0.96,0c0-0.079,0-0.159,0-0.239
			c-0.64-0.08-1.28-0.16-1.92-0.24c0-0.08,0-0.16,0-0.24c-0.4,0-0.8,0-1.2,0c0-0.08,0-0.16,0-0.24c-0.4,0-0.8,0-1.2,0
			c0-0.079,0-0.159,0-0.239c-0.479,0-0.96,0-1.439,0c0-0.08,0-0.16,0-0.24c-1.28-0.08-2.561-0.16-3.84-0.24
			c-1.527-0.432-4.075-0.241-6-0.24c-0.801,0-1.601,0-2.4,0c0,0.08,0,0.16,0,0.24c-0.64,0-1.28,0-1.92,0c0,0.08,0,0.16,0,0.24
			c-0.48,0-0.96,0-1.44,0c0,0.08,0,0.16,0,0.24c-0.399,0-0.8,0-1.2,0c0,0.08,0,0.16,0,0.239c-0.64,0.08-1.279,0.16-1.92,0.24
			c0,0.08,0,0.16,0,0.24c-0.239,0-0.479,0-0.72,0c0,0.08,0,0.16,0,0.24c-0.24,0-0.479,0-0.72,0c0,0.08,0,0.16,0,0.239
			c-0.24,0-0.48,0-0.72,0c0,0.08,0,0.16,0,0.24c-0.24,0-0.48,0-0.721,0c0,0.08,0,0.16,0,0.24c-0.709,0.221-1.813-0.143-2.16-0.24
			c-1.199,0.08-2.399,0.16-3.6,0.24c0-0.16,0-0.32,0-0.48c0.844-0.226,1.476-0.831,2.16-1.199c0.32-0.08,0.64-0.16,0.96-0.24
			c0.08-0.16,0.16-0.32,0.24-0.48c0.319-0.08,0.64-0.159,0.96-0.239c0-0.08,0-0.16,0-0.24c0.319-0.08,0.64-0.16,0.96-0.24
			c0-0.08,0-0.16,0-0.24c0.24,0,0.479,0,0.72,0c0-0.08,0-0.159,0-0.239c0.32-0.08,0.64-0.16,0.96-0.24c0-0.08,0-0.16,0-0.24
			c0.16,0,0.32,0,0.48,0c0-0.08,0-0.16,0-0.24c0.239,0,0.479,0,0.72,0c0-0.08,0-0.16,0-0.239c0.32-0.08,0.64-0.16,0.96-0.24
			c0-0.08,0-0.16,0-0.24c0.479-0.08,0.96-0.16,1.439-0.24c0-0.08,0-0.16,0-0.239c0.16,0,0.32,0,0.48,0c0-0.08,0-0.16,0-0.24
			c2.56-0.721,5.12-1.44,7.68-2.16c0.4,0,0.801,0,1.2,0c0-0.08,0-0.16,0-0.24c0.4,0,0.8,0,1.2,0c0-0.08,0-0.16,0-0.24
			c0.56,0,1.12,0,1.68,0c0-0.08,0-0.159,0-0.239c0.641,0,1.28,0,1.92,0c0-0.08,0-0.16,0-0.24c1.12,0,2.24,0,3.36,0
			c0-0.08,0-0.16,0-0.24c1.44,0,2.88,0,4.32,0c0,0.08,0,0.16,0,0.24c1.12,0,2.239,0,3.359,0c0,0.08,0,0.16,0,0.24
			c0.641,0,1.28,0,1.92,0c1.136,0.321,2.75,0.607,3.841,0.96c1.098,0.354,2.455,0.209,3.119,0.96c0.08,0,0.16,0,0.24,0
			c0-6.319,0-12.642,0-18.96c-6.239,0-12.48,0-18.72,0C69.84,3.44,69.84,3.52,69.84,3.6z M44.88,39.12c0-0.08,0-0.16,0-0.24
			c1.12,0.08,2.24,0.16,3.36,0.24c2.701,1.012,5.896,4.412,4.56,8.64c0,0.32,0,0.641,0,0.96c-0.08,0-0.16,0-0.24,0
			c-0.08,0.32-0.16,0.641-0.24,0.96C52.16,49.76,52,49.84,51.84,49.92c0,0.16,0,0.32,0,0.479c-0.24,0.16-0.48,0.32-0.72,0.48
			c-0.32,0.398-0.641,0.8-0.96,1.2c-0.16,0-0.32,0-0.48,0c0,0.08,0,0.16,0,0.239c-0.32,0.079-0.64,0.159-0.96,0.239
			c0,0.08,0,0.16,0,0.24c-0.24,0-0.479,0-0.72,0c0,0.08,0,0.16,0,0.24c-0.4,0-0.8,0-1.2,0c0,0.08,0,0.16,0,0.239
			c-0.941,0.274-2.338-0.28-2.88-0.479c-0.24,0-0.48,0-0.72,0c0-0.08,0-0.16,0-0.24c-0.32-0.08-0.641-0.16-0.96-0.239
			C42.16,52.16,42.08,52,42,51.84c-0.16,0-0.32,0-0.48,0c-0.319-0.4-0.64-0.8-0.96-1.2c-0.16-0.08-0.319-0.16-0.479-0.24
			c0-0.158,0-0.318,0-0.479c-0.16-0.08-0.32-0.16-0.48-0.24c0-0.16,0-0.319,0-0.479c-0.08,0-0.16,0-0.24,0
			c-0.08-0.48-0.159-0.96-0.239-1.44c-0.203-0.563-0.529-2.434-0.24-3.36c0.08,0,0.16,0,0.24,0c0.08-0.479,0.159-0.96,0.239-1.439
			c0.08,0,0.16,0,0.24,0c0-0.16,0-0.32,0-0.48c0.16-0.08,0.32-0.159,0.48-0.239c0-0.16,0-0.32,0-0.48
			c0.16-0.08,0.319-0.16,0.479-0.24c0.4-0.479,0.8-0.96,1.2-1.439c0.16,0,0.32,0,0.48,0c0-0.08,0-0.16,0-0.24
			c0.479-0.16,0.96-0.32,1.439-0.48c0-0.079,0-0.159,0-0.239C44.08,39.12,44.48,39.12,44.88,39.12z M273.6,3.36
			c-2.239,0-4.479,0-6.72,0c-0.24,4.721-0.479,9.44-0.72,14.16c-2.32,0-4.642,0-6.96,0c0,2.24,0,4.48,0,6.721c2.318,0,4.64,0,6.96,0
			c0,10.959,0,21.921,0,32.88c0,6.791-0.535,12.36,2.398,16.318c0.08,0,0.16,0,0.24,0c0.08,0.16,0.16,0.32,0.24,0.48
			c0.159,0,0.319,0,0.479,0c0.16,0.24,0.32,0.479,0.48,0.72c0.16,0,0.319,0,0.479,0c0,0.08,0,0.16,0,0.24
			c0.479,0.16,0.96,0.32,1.439,0.479c0,0.08,0,0.16,0,0.24c0.319,0,0.641,0,0.96,0c2.156,0.716,5.989,0.655,8.16,0
			c0.398,0,0.8,0,1.199,0c0.721-0.24,1.439-0.479,2.16-0.72c0-2.479,0-4.96,0-7.44c-0.239,0.08-0.479,0.16-0.721,0.24
			c0,0.08,0,0.16,0,0.24c-0.16,0-0.32,0-0.479,0c0,0.08,0,0.16,0,0.24c-0.159,0-0.319,0-0.479,0
			c-0.996,0.527-3.299,1.787-5.279,1.198c0-0.079,0-0.158,0-0.238c-0.319,0-0.641,0-0.96,0c0-0.08,0-0.16,0-0.24
			c-0.16,0-0.319,0-0.479,0c0-0.08,0-0.16,0-0.24c-0.16,0-0.32,0-0.48,0c0-0.08,0-0.16,0-0.24c-0.239-0.079-0.479-0.158-0.72-0.238
			c-0.147-0.552-0.211-0.578-0.479-0.96c-0.08,0-0.159,0-0.239,0c-0.08-0.562-0.16-1.12-0.24-1.682c-0.08,0-0.16,0-0.24,0
			c0-13.758,0-27.521,0-41.28c3.601,0,7.201,0,10.801,0c0-2.239,0-4.479,0-6.72c-3.6,0-7.2,0-10.801,0
			C273.6,12.8,273.6,8.08,273.6,3.36z M139.92,54.479c-0.08,0-0.16,0-0.24,0c-0.08-0.479-0.16-0.96-0.24-1.438
			c-0.08,0-0.16,0-0.239,0c-0.16-0.48-0.32-0.96-0.48-1.44c-0.08,0-0.16,0-0.24,0c0-0.16,0-0.318,0-0.479
			c-0.16-0.08-0.319-0.16-0.479-0.24c0-0.16,0-0.32,0-0.48c-0.32-0.238-0.641-0.479-0.96-0.72c0-0.16,0-0.319,0-0.479
			c-0.32-0.24-0.641-0.48-0.96-0.722c-0.08-0.16-0.16-0.318-0.24-0.479c-0.16,0-0.32,0-0.48,0c-0.239-0.32-0.479-0.642-0.72-0.96
			c-0.16,0-0.32,0-0.479,0c-0.08-0.16-0.16-0.32-0.24-0.48c-0.24-0.08-0.48-0.16-0.72-0.238c0-0.08,0-0.16,0-0.24
			c-0.16,0-0.32,0-0.48,0c-0.08-0.16-0.16-0.32-0.24-0.48c-0.479-0.16-0.96-0.319-1.439-0.479c0-0.08,0-0.16,0-0.24
			c-0.16,0-0.32,0-0.48,0c0-0.08,0-0.16,0-0.24c-0.479-0.16-0.96-0.319-1.439-0.479c0-0.08,0-0.16,0-0.24c-0.24,0-0.48,0-0.721,0
			c0-0.08,0-0.16,0-0.24c-0.16,0-0.319,0-0.479,0c0-0.08,0-0.16,0-0.24c-0.24,0-0.48,0-0.721,0c0-0.08,0-0.159,0-0.239
			c-0.159,0-0.319,0-0.479,0c0-0.08,0-0.16,0-0.24c-0.48-0.08-0.96-0.16-1.44-0.24c0-0.08,0-0.16,0-0.24c-0.319,0-0.64,0-0.96,0
			c0-0.08,0-0.159,0-0.239c-0.239,0-0.479,0-0.72,0c0-0.08,0-0.16,0-0.24c-0.32,0-0.64,0-0.96,0c0-0.08,0-0.16,0-0.24
			c-0.24,0-0.479,0-0.72,0c0-0.08,0-0.16,0-0.24c-0.24,0-0.48,0-0.721,0c0-0.08,0-0.16,0-0.239c-0.239,0-0.479,0-0.72,0
			c0-0.08,0-0.16,0-0.24c-0.24,0-0.479,0-0.72,0c0-0.08,0-0.16,0-0.24c-0.24,0-0.48,0-0.72,0c0-0.08,0-0.16,0-0.24
			c-0.16,0-0.32,0-0.48,0c0-0.08,0-0.16,0-0.239c-0.24,0-0.479,0-0.72,0c0-0.08,0-0.16,0-0.24c-0.48-0.16-0.96-0.32-1.44-0.48
			c0-0.08,0-0.16,0-0.24c-0.16,0-0.319,0-0.479,0c0-0.079,0-0.159,0-0.239c-0.32-0.08-0.641-0.16-0.96-0.24c0-0.08,0-0.16,0-0.24
			c-0.24-0.08-0.48-0.16-0.721-0.24c-0.079-0.159-0.159-0.319-0.239-0.479c-0.16,0-0.32,0-0.48,0c-0.32-0.4-0.64-0.8-0.96-1.2
			c-0.32-0.24-0.64-0.479-0.96-0.72c0-0.16,0-0.32,0-0.48c-0.16-0.08-0.32-0.16-0.479-0.239c0-0.24,0-0.48,0-0.721
			c-0.08,0-0.16,0-0.24,0c-0.527-1.331-0.249-4.172,0.24-5.279c0.079,0,0.159,0,0.239,0c0.08-0.32,0.16-0.641,0.24-0.961
			c0.16-0.079,0.32-0.159,0.48-0.239c0-0.16,0-0.32,0-0.48c0.239-0.16,0.479-0.319,0.72-0.479c0.399-0.48,0.8-0.96,1.2-1.44
			c0.16,0,0.319,0,0.479,0c0.08-0.16,0.16-0.32,0.24-0.479c0.32-0.08,0.64-0.16,0.96-0.24c0.08-0.16,0.16-0.32,0.24-0.48
			c0.24,0,0.479,0,0.72,0c0-0.08,0-0.16,0-0.239c0.16,0,0.32,0,0.48,0c0-0.08,0-0.16,0-0.24c0.479-0.08,0.96-0.16,1.439-0.24
			c0-0.08,0-0.16,0-0.24c0.4,0,0.8,0,1.2,0c0.828-0.248,4.351-0.579,5.52-0.239c1.44,0.399,2.881,0.8,4.32,1.199
			c0,0.08,0,0.16,0,0.24c0.48,0.16,0.96,0.32,1.44,0.48c0,0.08,0,0.159,0,0.239c0.159,0,0.319,0,0.479,0c0,0.08,0,0.16,0,0.24
			c0.16,0,0.32,0,0.48,0c0,0.08,0,0.16,0,0.24c0.319,0.08,0.64,0.16,0.96,0.24c0,0.08,0,0.159,0,0.239
			c0.239,0.08,0.479,0.16,0.72,0.24c0.08,0.16,0.16,0.32,0.24,0.48c0.16,0,0.319,0,0.479,0c0.08,0.16,0.16,0.319,0.24,0.479
			c0.16,0,0.32,0,0.48,0c0.159,0.24,0.319,0.48,0.479,0.72c0.16,0,0.32,0,0.48,0c0,0.08,0,0.16,0,0.24
			c0.418,0.345,0.577,0.554,1.199,0.721c0-2.8,0-5.601,0-8.4c-0.239-0.08-0.479-0.16-0.72-0.24c-0.08-0.16-0.16-0.32-0.24-0.479
			c-0.16,0-0.319,0-0.479,0c0-0.08,0-0.16,0-0.24c-0.48-0.16-0.96-0.32-1.44-0.48c0-0.08,0-0.159,0-0.239c-0.24,0-0.479,0-0.72,0
			c0-0.08,0-0.16,0-0.24c-0.16,0-0.32,0-0.48,0c0-0.08,0-0.16,0-0.24c-0.319-0.08-0.64-0.16-0.96-0.24c0-0.08,0-0.16,0-0.239
			c-1.76-0.561-3.521-1.12-5.279-1.681c-0.4,0-0.801,0-1.2,0c-0.848-0.257-4.262-0.829-5.521-0.479c0,0.08,0,0.16,0,0.239
			c-0.72,0-1.439,0-2.159,0c0,0.08,0,0.16,0,0.24c-0.4,0-0.801,0-1.2,0c0,0.08,0,0.16,0,0.24c-0.32,0-0.641,0-0.96,0
			c0,0.08,0,0.16,0,0.24c-0.32,0-0.641,0-0.96,0c0,0.08,0,0.16,0,0.24c-0.24,0-0.48,0-0.721,0c0,0.079,0,0.159,0,0.239
			c-0.159,0-0.319,0-0.479,0c0,0.08,0,0.16,0,0.24c-0.24,0-0.48,0-0.72,0c0,0.08,0,0.16,0,0.24c-0.48,0.16-0.96,0.319-1.44,0.479
			c0,0.08,0,0.16,0,0.24c-0.32,0.08-0.64,0.16-0.96,0.24c0,0.08,0,0.16,0,0.24c-0.24,0.08-0.48,0.159-0.72,0.239
			c-0.08,0.16-0.16,0.32-0.24,0.48c-0.16,0-0.32,0-0.48,0c-0.159,0.24-0.319,0.479-0.479,0.72c-0.16,0-0.32,0-0.48,0
			c-0.479,0.561-0.96,1.12-1.439,1.68c-0.32,0.24-0.641,0.48-0.96,0.721c0,0.16,0,0.319,0,0.479c-0.24,0.16-0.48,0.32-0.72,0.48
			c0,0.16,0,0.319,0,0.479c-0.16,0.08-0.32,0.16-0.48,0.24c-1.227,1.935-2.65,7.279-1.68,10.561c0,0.399,0,0.8,0,1.199
			c2.488,7.476,8.749,9.225,15.84,12c0.56,0.08,1.12,0.16,1.68,0.24c0,0.08,0,0.16,0,0.24c0.24,0,0.48,0,0.72,0
			c0,0.08,0,0.16,0,0.24c0.24,0,0.48,0,0.721,0c0,0.079,0,0.159,0,0.238c0.239,0,0.479,0,0.72,0c0,0.08,0,0.16,0,0.24
			c0.24,0,0.48,0,0.72,0c0,0.08,0,0.16,0,0.24c0.16,0,0.32,0,0.48,0c0,0.08,0,0.16,0,0.24c0.479,0.08,0.96,0.159,1.439,0.238
			c0,0.08,0,0.16,0,0.24c0.32,0.08,0.641,0.16,0.96,0.24c0,0.08,0,0.16,0,0.24c0.399,0.08,0.801,0.159,1.2,0.238
			c0.08,0.16,0.16,0.32,0.24,0.48c0.32,0.08,0.64,0.16,0.96,0.24c0.16,0.239,0.32,0.479,0.48,0.72c0.159,0,0.319,0,0.479,0
			c0.08,0.16,0.16,0.32,0.24,0.479c0.319,0.239,0.64,0.479,0.96,0.721c0,0.16,0,0.318,0,0.479c0.16,0.08,0.32,0.16,0.479,0.24
			c0,0.16,0,0.32,0,0.48c0.16,0.078,0.32,0.159,0.48,0.238c0.08,0.48,0.16,0.96,0.24,1.44c0.08,0,0.159,0,0.239,0
			c0.332,1.026,0.035,2.979-0.239,3.84c-0.08,0.56-0.16,1.12-0.24,1.68c-1.271,2.909-4.984,5.178-8.16,6.24c-0.4,0-0.8,0-1.2,0
			c-1.002,0.305-3.953,0.922-5.52,0.48c0-0.08,0-0.16,0-0.24c-0.88-0.08-1.76-0.16-2.641-0.24c0-0.08,0-0.16,0-0.24
			c-0.239,0-0.479,0-0.72,0c0-0.079,0-0.158,0-0.238c-0.32,0-0.64,0-0.96,0c0-0.08,0-0.16,0-0.24c-0.4-0.08-0.8-0.16-1.2-0.24
			c0-0.08,0-0.16,0-0.24c-0.16,0-0.319,0-0.479,0c0-0.079,0-0.16,0-0.238c-0.24,0-0.48,0-0.721,0c0-0.08,0-0.16,0-0.24
			c-0.319-0.08-0.64-0.16-0.96-0.24c0-0.08,0-0.16,0-0.24c-0.319-0.079-0.64-0.16-0.96-0.238c-0.08-0.16-0.159-0.32-0.239-0.48
			c-0.32-0.08-0.641-0.16-0.96-0.24c-0.08-0.16-0.16-0.318-0.24-0.479c-0.16,0-0.32,0-0.48,0c-0.08-0.16-0.16-0.32-0.239-0.48
			c-0.16,0-0.32,0-0.48,0c-0.08-0.16-0.16-0.318-0.24-0.479c-0.16,0-0.319,0-0.479,0c-0.08-0.16-0.16-0.32-0.24-0.48
			c-0.16,0-0.32,0-0.48,0c-0.079-0.16-0.159-0.318-0.239-0.479c-0.303-0.278-0.697-0.4-0.96-0.722c-0.08,0-0.16,0-0.24,0
			c0,2.881,0,5.762,0,8.642c0.149,0.271,0.927,0.304,1.2,0.479c0.08,0.16,0.16,0.32,0.239,0.48c0.48,0.16,0.961,0.319,1.44,0.479
			c0,0.08,0,0.16,0,0.24c0.16,0,0.32,0,0.48,0c0,0.08,0,0.16,0,0.24c0.159,0,0.319,0,0.479,0c0,0.08,0,0.16,0,0.24
			c0.48,0.159,0.96,0.318,1.44,0.479c0,0.08,0,0.16,0,0.24c0.239,0,0.479,0,0.72,0c0,0.08,0,0.16,0,0.24c0.16,0,0.32,0,0.479,0
			c0,0.08,0,0.159,0,0.238c1.681,0.48,3.36,0.96,5.04,1.44c0.561,0,1.12,0,1.681,0c0.809,0.231,5.353,0.556,6.479,0.24
			c0-0.08,0-0.16,0-0.24c0.561,0,1.12,0,1.681,0c0-0.08,0-0.16,0-0.24c0.399,0,0.8,0,1.199,0c0-0.08,0-0.16,0-0.24
			c0.24,0,0.48,0,0.721,0c0-0.078,0-0.158,0-0.238c0.319,0,0.64,0,0.96,0c0-0.08,0-0.16,0-0.24c0.239,0,0.479,0,0.72,0
			c0-0.08,0-0.16,0-0.24c0.16,0,0.32,0,0.48,0c0-0.08,0-0.16,0-0.24c0.239,0,0.479,0,0.72,0c0-0.078,0-0.158,0-0.238
			c0.16,0,0.319,0,0.479,0c0-0.08,0-0.16,0-0.24c0.16,0,0.32,0,0.48,0c0-0.08,0-0.16,0-0.24c0.16,0,0.32,0,0.479,0
			c0-0.08,0-0.16,0-0.24c0.16,0,0.32,0,0.48,0c0-0.079,0-0.159,0-0.238c0.16,0,0.32,0,0.479,0c0.08-0.16,0.16-0.32,0.24-0.48
			c0.16,0,0.32,0,0.48,0c0-0.08,0-0.16,0-0.24c0.239-0.079,0.479-0.159,0.72-0.238c0.08-0.16,0.16-0.32,0.24-0.48
			c0.16,0,0.319,0,0.479,0c0.24-0.32,0.48-0.64,0.72-0.96c0.16,0,0.32,0,0.48,0c0.16-0.24,0.32-0.479,0.48-0.72
			c0.479-0.4,0.96-0.801,1.439-1.2c0-0.16,0-0.32,0-0.48c0.24-0.158,0.48-0.318,0.72-0.479c0-0.16,0-0.32,0-0.48
			c0.16-0.078,0.32-0.159,0.48-0.238c0-0.16,0-0.32,0-0.48c0.16-0.08,0.32-0.16,0.479-0.24c0.16-0.479,0.32-0.96,0.48-1.438
			c0.08,0,0.16,0,0.24,0c0-0.16,0-0.32,0-0.48c0.08,0,0.16,0,0.239,0c0-0.238,0-0.479,0-0.72c0.424-1.056,0.925-2.371,0.96-3.84
			c0-1.521,0-3.04,0-4.562c-0.079,0-0.159,0-0.239,0C139.92,55.12,139.92,54.8,139.92,54.479z M187.68,68.64
			c-2.22-0.663-1.44-6.044-1.44-8.88c0-8.959,0-17.921,0-26.88c-0.079,0-0.159,0-0.239,0c0-0.72,0-1.44,0-2.16
			c-0.08,0-0.16,0-0.24,0c0-0.4,0-0.8,0-1.2c-0.08,0-0.16,0-0.24,0c0-0.319,0-0.64,0-0.96c-0.08,0-0.16,0-0.24,0
			c0-0.319,0-0.64,0-0.96c-0.079,0-0.159,0-0.239,0c0-0.24,0-0.479,0-0.72c-0.08,0-0.16,0-0.24,0c0-0.24,0-0.48,0-0.72
			c-0.08,0-0.16,0-0.24,0c-0.16-0.48-0.32-0.96-0.479-1.44c-0.08,0-0.16,0-0.24,0c-0.08-0.32-0.16-0.64-0.24-0.96
			c-0.16-0.08-0.32-0.16-0.479-0.24c0-0.16,0-0.319,0-0.479c-0.16-0.08-0.32-0.16-0.48-0.24c0-0.16,0-0.32,0-0.48
			c-0.72-0.64-1.44-1.279-2.16-1.92c-0.24-0.319-0.479-0.64-0.72-0.96c-0.16,0-0.32,0-0.48,0c-0.08-0.159-0.159-0.319-0.239-0.479
			c-0.16,0-0.32,0-0.48,0c-0.08-0.16-0.16-0.32-0.24-0.48c-0.319-0.08-0.64-0.16-0.96-0.239c0-0.08,0-0.16,0-0.24
			c-0.319-0.08-0.64-0.16-0.96-0.24c0-0.08,0-0.16,0-0.24c-0.239,0-0.479,0-0.72,0c0-0.08,0-0.16,0-0.239c-0.16,0-0.32,0-0.48,0
			c0-0.08,0-0.16,0-0.24c-0.319,0-0.64,0-0.96,0c0-0.08,0-0.16,0-0.24c-0.319,0-0.64,0-0.96,0c0-0.08,0-0.16,0-0.24
			c-0.398,0-0.8,0-1.199,0c0-0.08,0-0.16,0-0.24c-0.721,0-1.44,0-2.16,0c0-0.079,0-0.159,0-0.239
			c-1.436-0.399-4.312,0.188-5.28,0.479c-0.4,0-0.8,0-1.2,0c-1.92,0.641-3.84,1.28-5.76,1.92c0,0.08,0,0.16,0,0.24
			c-0.16,0-0.32,0-0.48,0c0,0.08,0,0.16,0,0.24c-0.159,0-0.319,0-0.479,0c0,0.08,0,0.16,0,0.24c-0.16,0-0.32,0-0.48,0
			c0,0.08,0,0.159,0,0.239c-0.159,0-0.319,0-0.479,0c0,0.08,0,0.16,0,0.24c-0.16,0-0.32,0-0.48,0c0,0.08,0,0.16,0,0.24
			c-0.159,0-0.319,0-0.479,0c-0.762,0.407-1.391,0.985-2.4,1.2c0,2.88,0,5.76,0,8.64c0.533-0.15,0.603-0.198,0.96-0.479
			c0-0.08,0-0.16,0-0.24c0.16,0,0.32,0,0.48,0c0.08-0.16,0.16-0.32,0.24-0.48c0.159,0,0.319,0,0.479,0
			c0.16-0.24,0.32-0.479,0.48-0.72c0.16,0,0.319,0,0.479,0c0.08-0.16,0.16-0.32,0.24-0.48c0.32-0.079,0.64-0.159,0.96-0.239
			c0.08-0.16,0.16-0.32,0.24-0.48c0.479-0.16,0.96-0.32,1.439-0.479c0.08-0.16,0.16-0.32,0.24-0.48c0.16,0,0.32,0,0.48,0
			c0-0.08,0-0.16,0-0.24c0.159,0,0.319,0,0.479,0c0-0.08,0-0.159,0-0.239c0.24,0,0.48,0,0.72,0c0-0.08,0-0.16,0-0.24
			c0.32-0.08,0.641-0.16,0.96-0.24c0-0.08,0-0.16,0-0.24c0.24,0,0.48,0,0.721,0c0-0.08,0-0.16,0-0.239c0.239,0,0.479,0,0.72,0
			c0-0.08,0-0.16,0-0.24c0.32,0,0.64,0,0.96,0c0-0.08,0-0.16,0-0.24c0.32,0,0.64,0,0.96,0c0-0.08,0-0.16,0-0.24
			c0.48,0,0.96,0,1.44,0c0-0.08,0-0.16,0-0.239c1.46-0.426,3.429,0.192,4.319,0.479c0.561,0.08,1.12,0.16,1.681,0.24
			c0,0.08,0,0.16,0,0.24c0.479,0.159,0.96,0.319,1.439,0.479c0.08,0.16,0.16,0.32,0.24,0.48c0.16,0,0.32,0,0.48,0
			c0.319,0.399,0.64,0.8,0.96,1.199c0.479,0.4,0.96,0.801,1.439,1.2c0,0.16,0,0.32,0,0.48c0.16,0.08,0.32,0.16,0.48,0.239
			c1.599,2.526,1.511,6.854,1.439,11.04c-5.154,0.487-10.876,1.139-15.12,2.641c-0.319,0-0.64,0-0.96,0
			c-1.84,0.72-3.68,1.439-5.52,2.16c-0.08,0.159-0.16,0.319-0.24,0.479c-0.32,0.08-0.64,0.16-0.96,0.24
			c-0.08,0.16-0.16,0.32-0.24,0.479c-0.16,0-0.319,0-0.479,0c-0.08,0.16-0.16,0.32-0.24,0.48c-0.16,0-0.32,0-0.48,0
			c-0.159,0.24-0.319,0.479-0.479,0.72c-0.16,0-0.32,0-0.48,0c-0.08,0.16-0.159,0.32-0.239,0.48c-0.48,0.398-0.96,0.8-1.44,1.2
			c0,0.159,0,0.318,0,0.479c-0.24,0.16-0.479,0.32-0.72,0.48c0,0.159,0,0.318,0,0.479c-0.16,0.08-0.32,0.16-0.48,0.24
			c-0.08,0.24-0.16,0.479-0.24,0.72c-0.079,0-0.159,0-0.239,0c0,0.16,0,0.32,0,0.48c-0.08,0-0.16,0-0.24,0
			c-0.08,0.318-0.16,0.64-0.24,0.96c-0.08,0-0.16,0-0.24,0c-0.159,0.72-0.319,1.438-0.479,2.16c-0.08,0-0.16,0-0.24,0
			c-0.08,1.038-0.16,2.079-0.24,3.118c-0.08,0-0.159,0-0.239,0c0,1.04,0,2.08,0,3.12c0.08,0,0.159,0,0.239,0c0,0.722,0,1.44,0,2.16
			c0.08,0,0.16,0,0.24,0c0,0.4,0,0.801,0,1.2c0.08,0,0.16,0,0.24,0c0,0.24,0,0.479,0,0.72c0.08,0,0.16,0,0.24,0
			c0,0.24,0,0.48,0,0.721c0.08,0,0.16,0,0.239,0c0,0.239,0,0.479,0,0.721c0.08,0,0.16,0,0.24,0c0,0.16,0,0.318,0,0.479
			c0.08,0,0.16,0,0.24,0c0,0.16,0,0.32,0,0.48c0.08,0,0.16,0,0.24,0c0,0.16,0,0.318,0,0.479c0.08,0,0.16,0,0.24,0
			c0,0.16,0,0.32,0,0.48c0.079,0,0.159,0,0.239,0c0,0.16,0,0.319,0,0.479c0.08,0,0.16,0,0.24,0c0,0.16,0,0.32,0,0.48
			c0.16,0.08,0.32,0.16,0.48,0.24c0,0.159,0,0.318,0,0.479c0.319,0.24,0.64,0.48,0.96,0.721c0,0.159,0,0.319,0,0.479
			c0.479,0.398,0.96,0.8,1.439,1.2c0.24,0.318,0.48,0.64,0.72,0.96c0.16,0,0.32,0,0.48,0c0.16,0.239,0.32,0.479,0.479,0.72
			c0.32,0.08,0.641,0.16,0.961,0.24c0.079,0.16,0.159,0.319,0.239,0.479c0.16,0,0.32,0,0.48,0c0,0.08,0,0.16,0,0.24
			c0.319,0.08,0.64,0.16,0.96,0.24c0,0.08,0,0.16,0,0.239c0.8,0.16,1.6,0.319,2.399,0.479c0.968,0.317,4.921,0.93,6.48,0.48
			c0-0.08,0-0.16,0-0.24c0.4,0,0.8,0,1.2,0c0-0.08,0-0.16,0-0.24c0.479-0.08,0.96-0.16,1.439-0.24c0-0.079,0-0.159,0-0.239
			c0.48-0.159,0.96-0.319,1.44-0.479c0-0.08,0-0.16,0-0.24c0.16,0,0.32,0,0.479,0c0-0.079,0-0.159,0-0.239
			c0.32-0.079,0.641-0.159,0.96-0.239c0.08-0.16,0.16-0.32,0.24-0.48c0.24-0.079,0.48-0.16,0.72-0.239
			c0.24-0.319,0.48-0.641,0.721-0.96c0.16,0,0.319,0,0.479,0c0.08-0.159,0.16-0.319,0.24-0.479c0.48-0.4,0.96-0.8,1.44-1.2
			c0-0.16,0-0.319,0-0.479c0.319-0.24,0.64-0.48,0.96-0.722c0.454-0.634,0.55-1.251,1.199-1.68c0.146-0.479-0.032-0.206,0.24-0.479
			c0.396,2.269,0.608,4.646,1.681,6.239c0.319,0.24,0.64,0.48,0.96,0.722c0.159,0.238,0.319,0.479,0.479,0.72c0.16,0,0.32,0,0.48,0
			c0.08,0.16,0.159,0.319,0.239,0.479c0.16,0,0.32,0,0.48,0c0,0.08,0,0.16,0,0.24c0.56,0.08,1.12,0.16,1.68,0.24
			c0.683,0.218,3.531,0.536,4.561,0.24c1.199-0.4,2.399-0.802,3.6-1.2c0-2.239,0-4.48,0-6.72
			C191.725,68.626,188.865,69.896,187.68,68.64z M178.08,57.12c0,0.398,0,0.8,0,1.199c-0.08,0-0.16,0-0.24,0
			c-0.08,0.561-0.16,1.119-0.24,1.681c-0.08,0-0.16,0-0.24,0c0,0.16,0,0.318,0,0.479c-0.08,0-0.159,0-0.239,0c0,0.24,0,0.48,0,0.722
			c-0.08,0-0.16,0-0.24,0c-0.16,0.479-0.32,0.96-0.48,1.438c-0.08,0-0.16,0-0.239,0c-0.08,0.32-0.16,0.642-0.24,0.96
			c-0.16,0.08-0.32,0.16-0.48,0.24c0,0.16,0,0.32,0,0.479c-0.319,0.239-0.64,0.479-0.96,0.721c0,0.16,0,0.318,0,0.479
			c-0.16,0.08-0.319,0.16-0.479,0.24c-0.24,0.32-0.48,0.641-0.721,0.96c-0.159,0-0.319,0-0.479,0c-0.16,0.24-0.32,0.48-0.48,0.72
			c-0.319,0.08-0.64,0.16-0.96,0.24c-0.08,0.16-0.159,0.32-0.239,0.48c-0.24,0-0.48,0-0.721,0c0,0.079,0,0.159,0,0.238
			c-0.16,0-0.319,0-0.479,0c0,0.08,0,0.16,0,0.24c-0.32,0-0.641,0-0.96,0c-1.353,0.45-2.957,0.715-4.561,0.24
			c-0.399,0-0.8,0-1.199,0c0-0.08,0-0.16,0-0.24c-0.24,0-0.48,0-0.721,0c0-0.08,0-0.16,0-0.24c-0.16,0-0.319,0-0.479,0
			c0-0.079,0-0.159,0-0.238c-0.24,0-0.48,0-0.721,0c-0.079-0.16-0.159-0.32-0.239-0.48c-0.16,0-0.32,0-0.48,0
			c-0.08-0.16-0.16-0.319-0.24-0.479c-0.159,0-0.319,0-0.479,0c-0.24-0.32-0.48-0.642-0.72-0.96c-0.32-0.24-0.641-0.48-0.96-0.722
			c0-0.16,0-0.318,0-0.479c-0.16-0.08-0.32-0.16-0.48-0.24c-0.08-0.24-0.16-0.479-0.24-0.72c-0.08,0-0.16,0-0.24,0
			c-0.079-0.4-0.159-0.802-0.239-1.2c-0.08,0-0.16,0-0.24,0c0-0.24,0-0.48,0-0.72c-1.13-2.868-0.817-5.712,0.479-8.16
			c0.08-0.32,0.16-0.642,0.24-0.96c0.24-0.16,0.48-0.32,0.721-0.48c0-0.16,0-0.318,0-0.479c0.159-0.08,0.319-0.16,0.479-0.24
			c0.4-0.48,0.8-0.96,1.2-1.44c0.16,0,0.32,0,0.479,0c0.16-0.238,0.32-0.479,0.48-0.72c0.32-0.08,0.64-0.16,0.96-0.24
			c0.08-0.159,0.16-0.318,0.24-0.479c0.16,0,0.319,0,0.479,0c0-0.08,0-0.16,0-0.24c0.16,0,0.32,0,0.48,0c0-0.08,0-0.16,0-0.24
			c0.239,0,0.479,0,0.72,0c0-0.079,0-0.16,0-0.238c0.16,0,0.32,0,0.48,0c0-0.08,0-0.16,0-0.24c0.239,0,0.479,0,0.72,0
			c0-0.08,0-0.16,0-0.24c0.24,0,0.479,0,0.72,0c0-0.08,0-0.16,0-0.24c0.24,0,0.48,0,0.72,0c0-0.08,0-0.16,0-0.238
			c0.32,0,0.641,0,0.96,0c0-0.08,0-0.16,0-0.24c0.32,0,0.641,0,0.96,0c0-0.08,0-0.16,0-0.24c1.28-0.16,2.561-0.32,3.841-0.479
			c1.678-0.502,4.391-0.99,6.479-0.96C178.583,49.176,178.994,54.068,178.08,57.12z M329.76,43.68
			c0.003-5.243-0.232-9.982-1.681-13.68c-0.079-0.48-0.159-0.96-0.239-1.44c-0.08,0-0.16,0-0.24,0
			c-0.16-0.479-0.319-0.96-0.479-1.439c-0.079,0-0.159,0-0.239,0c0-0.16,0-0.32,0-0.48c-0.08,0-0.16,0-0.24,0
			c-0.16-0.479-0.319-0.96-0.479-1.439c-0.159-0.08-0.319-0.16-0.479-0.24c-0.08-0.32-0.16-0.641-0.239-0.96
			c-0.24-0.16-0.479-0.32-0.721-0.48c0-0.16,0-0.319,0-0.479c-0.239-0.16-0.479-0.32-0.72-0.48c0-0.16,0-0.319,0-0.479
			c-0.16-0.08-0.32-0.16-0.48-0.24c-0.479-0.56-0.96-1.12-1.439-1.68c-0.159,0-0.319,0-0.479,0c-0.239-0.32-0.479-0.641-0.72-0.96
			c-0.16,0-0.32,0-0.479,0c-0.08-0.16-0.16-0.32-0.24-0.48c-0.319-0.08-0.641-0.16-0.96-0.24c0-0.08,0-0.16,0-0.239
			c-0.159,0-0.319,0-0.479,0c0-0.08,0-0.16,0-0.24c-0.479-0.16-0.96-0.32-1.439-0.48c0-0.08,0-0.16,0-0.239
			c-0.721-0.16-1.439-0.32-2.159-0.48c0-0.08,0-0.16,0-0.24c-0.4,0-0.801,0-1.2,0c-2.126-0.641-5.554-0.633-7.681,0
			c-0.399,0-0.801,0-1.199,0c0,0.08,0,0.16,0,0.24c-0.32,0-0.641,0-0.96,0c0,0.08,0,0.16,0,0.24c-0.24,0-0.48,0-0.721,0
			c0,0.08,0,0.16,0,0.24c-0.239,0-0.479,0-0.721,0c0,0.079,0,0.159,0,0.239c-0.239,0-0.479,0-0.72,0c0,0.08,0,0.16,0,0.24
			c-0.16,0-0.32,0-0.479,0c0,0.08,0,0.16,0,0.24c-0.479,0.16-0.96,0.319-1.439,0.479c-0.08,0.16-0.16,0.32-0.24,0.48
			c-0.319,0.08-0.641,0.16-0.96,0.24c-0.08,0.159-0.16,0.319-0.24,0.479c-0.159,0-0.319,0-0.479,0c-0.24,0.32-0.48,0.64-0.72,0.96
			c-0.16,0-0.32,0-0.48,0c-0.479,0.561-0.96,1.12-1.439,1.68c-0.319,0.24-0.641,0.48-0.96,0.721c0,0.16,0,0.319,0,0.479
			c-0.239,0.16-0.479,0.32-0.721,0.48c0,0.16,0,0.319,0,0.479c-0.24,0.16-0.479,0.32-0.72,0.48c0,0.16,0,0.32,0,0.479
			c-0.16,0.08-0.32,0.16-0.48,0.24c0,0.16,0,0.32,0,0.48c-0.159,0.08-0.318,0.159-0.479,0.239c-0.16,0.48-0.32,0.96-0.48,1.44
			c-0.16,0.08-0.318,0.16-0.479,0.24c0,0.16,0,0.319,0,0.479c-0.08,0-0.16,0-0.24,0c-0.08,0.32-0.16,0.641-0.24,0.96
			c-0.079,0-0.16,0-0.238,0c0,0.24,0,0.48,0,0.721c-0.08,0-0.16,0-0.24,0c-0.08,0.319-0.16,0.64-0.24,0.96c-0.08,0-0.16,0-0.24,0
			c-0.08,0.399-0.16,0.8-0.238,1.199c-0.08,0-0.16,0-0.24,0c0,0.24,0,0.48,0,0.721c-0.08,0-0.16,0-0.24,0c0,0.239,0,0.479,0,0.72
			c-0.08,0-0.16,0-0.24,0c0,0.32,0,0.64,0,0.96c-0.08,0-0.16,0-0.238,0c0,0.32,0,0.64,0,0.96c-0.08,0-0.16,0-0.24,0
			c0,0.32,0,0.64,0,0.96c-0.08,0-0.16,0-0.24,0c0,0.32,0,0.64,0,0.96c-0.08,0-0.16,0-0.24,0c-0.08,1.04-0.16,2.08-0.239,3.12
			c-0.079,0-0.159,0-0.239,0c-0.08,2.88-0.16,5.761-0.24,8.64c0.08,0,0.16,0,0.24,0c0,0.96,0,1.92,0,2.881c0.08,0,0.16,0,0.239,0
			c0,0.561,0,1.119,0,1.681c0.079,0,0.159,0,0.239,0c0,0.398,0,0.8,0,1.2c0.08,0,0.16,0,0.24,0c0,0.398,0,0.8,0,1.198
			c0.08,0,0.16,0,0.24,0c0.08,0.642,0.16,1.28,0.24,1.921c0.078,0,0.158,0,0.238,0c0,0.239,0,0.479,0,0.721c0.08,0,0.16,0,0.24,0
			c0,0.24,0,0.479,0,0.72c0.08,0,0.16,0,0.24,0c0,0.24,0,0.48,0,0.72c0.08,0,0.16,0,0.24,0c0,0.24,0,0.48,0,0.722
			c0.078,0,0.158,0,0.238,0c0.08,0.318,0.16,0.64,0.24,0.96c0.08,0,0.16,0,0.24,0c0,0.238,0,0.479,0,0.72c0.08,0,0.16,0,0.24,0
			c0.078,0.32,0.159,0.64,0.238,0.96c0.08,0,0.16,0,0.24,0c0.08,0.32,0.16,0.64,0.24,0.96c0.16,0.08,0.318,0.16,0.479,0.24
			c0.08,0.318,0.16,0.64,0.24,0.96c0.16,0.08,0.32,0.16,0.48,0.24c0,0.159,0,0.318,0,0.479c0.079,0,0.159,0,0.238,0
			c0.08,0.24,0.16,0.48,0.24,0.72c0.16,0.08,0.32,0.16,0.48,0.24c0,0.16,0,0.32,0,0.48c0.318,0.238,0.64,0.479,0.96,0.72
			c0,0.16,0,0.32,0,0.479c0.239,0.16,0.479,0.32,0.72,0.48c0.479,0.56,0.96,1.12,1.439,1.68c0.159,0,0.319,0,0.479,0
			c0.24,0.32,0.479,0.642,0.72,0.96c0.16,0,0.32,0,0.48,0c0.079,0.16,0.159,0.32,0.239,0.48c0.159,0,0.319,0,0.479,0
			c2.835,1.874,5.798,3.119,10.561,3.12c1.199,0,2.399,0,3.601,0c0-0.08,0-0.16,0-0.24c0.479,0,0.96,0,1.439,0c0-0.08,0-0.16,0-0.24
			c0.319,0,0.641,0,0.96,0c0-0.08,0-0.16,0-0.24c0.319,0,0.641,0,0.96,0c0-0.078,0-0.158,0-0.238c0.239,0,0.479,0,0.721,0
			c0-0.08,0-0.16,0-0.24c0.239,0,0.479,0,0.72,0c0-0.08,0-0.16,0-0.24c0.16,0,0.32,0,0.479,0c0-0.08,0-0.16,0-0.24
			c0.24,0,0.479,0,0.721,0c0-0.078,0-0.158,0-0.238c0.479-0.16,0.96-0.32,1.439-0.48c0-0.08,0-0.16,0-0.24c0.159,0,0.319,0,0.479,0
			c0-0.078,0-0.159,0-0.238c0.16,0,0.319,0,0.479,0c0-0.08,0-0.16,0-0.24c0.479-0.16,0.96-0.32,1.439-0.48
			c0.08-0.159,0.16-0.318,0.24-0.479c0.319-0.08,0.64-0.16,0.96-0.24c0-0.08,0-0.16,0-0.24c0.239-0.08,0.479-0.159,0.72-0.238
			c0.08-0.16,0.16-0.32,0.24-0.48c0.159,0,0.319,0,0.479,0c0.159-0.24,0.319-0.479,0.479-0.72c0.159,0,0.319,0,0.479,0
			c0.079-0.16,0.16-0.32,0.239-0.48c0.16,0,0.32,0,0.479,0c0-0.08,0-0.16,0-0.239c0.24-0.159,0.479-0.319,0.721-0.479
			c0-3.04,0-6.08,0-9.12c-1.279,1.2-2.561,2.4-3.84,3.601c-0.16,0.239-0.32,0.479-0.48,0.721c-0.159,0-0.319,0-0.479,0
			c-0.24,0.319-0.48,0.64-0.721,0.96c-0.16,0-0.319,0-0.479,0c-0.08,0.16-0.16,0.319-0.24,0.479c-0.16,0-0.319,0-0.479,0
			c-0.079,0.16-0.159,0.32-0.239,0.48c-0.16,0-0.32,0-0.479,0c-0.08,0.16-0.16,0.319-0.24,0.479c-0.319,0.08-0.641,0.16-0.96,0.24
			c-0.079,0.16-0.159,0.32-0.239,0.48c-0.721,0.238-1.44,0.479-2.16,0.72c0,0.08,0,0.16,0,0.24c-0.16,0-0.32,0-0.479,0
			c0,0.08,0,0.16,0,0.238c-0.88,0.16-1.761,0.32-2.641,0.48c-0.909,0.299-3.543,0.901-5.04,0.479c0-0.079,0-0.159,0-0.239
			c-0.479,0-0.96,0-1.439,0c0-0.08,0-0.16,0-0.24c-0.239,0-0.479,0-0.72,0c0-0.08,0-0.16,0-0.24c-0.24,0-0.479,0-0.721,0
			c0-0.08,0-0.16,0-0.239c-0.24,0-0.479,0-0.72,0c0-0.079,0-0.159,0-0.239c-0.16,0-0.32,0-0.48,0c0-0.08,0-0.16,0-0.24
			c-0.159,0-0.319,0-0.479,0c-0.08-0.16-0.16-0.32-0.24-0.48c-0.319-0.078-0.641-0.159-0.96-0.238c-0.319-0.4-0.641-0.801-0.96-1.2
			c-0.16,0-0.32,0-0.479,0c-0.16-0.24-0.319-0.48-0.479-0.72c-0.08,0-0.16,0-0.24,0c0-0.16,0-0.32,0-0.48
			c-0.319-0.24-0.64-0.479-0.96-0.72c0-0.16,0-0.32,0-0.48c-0.16-0.08-0.32-0.159-0.479-0.239c0-0.159,0-0.319,0-0.479
			c-0.159-0.08-0.319-0.16-0.479-0.24c-0.08-0.318-0.16-0.64-0.24-0.96c-0.159-0.08-0.318-0.16-0.479-0.239c0-0.16,0-0.319,0-0.479
			c-0.08,0-0.16,0-0.24,0c0-0.16,0-0.32,0-0.479c-0.08,0-0.16,0-0.24,0c0-0.239,0-0.479,0-0.721c-0.079,0-0.159,0-0.238,0
			c0-0.16,0-0.319,0-0.479c-0.08,0-0.16,0-0.24,0c0-0.24,0-0.48,0-0.722c-0.08,0-0.16,0-0.24,0c0-0.159,0-0.318,0-0.479
			c-0.08,0-0.16,0-0.24,0c-0.079-0.562-0.159-1.12-0.238-1.681c-0.08,0-0.16,0-0.24,0c0-0.239,0-0.479,0-0.721
			c-0.08,0-0.16,0-0.24,0c0-0.318,0-0.64,0-0.96c-0.08,0-0.16,0-0.24,0c-0.159-1.68-0.319-3.359-0.479-5.04c-0.08,0-0.16,0-0.24,0
			c-0.013-1.862-0.296-4.554,0.24-6C306.719,43.68,318.24,43.68,329.76,43.68z M296.64,34.32c0-0.239,0-0.479,0-0.72
			c0.08,0,0.16,0,0.24,0c0.08-0.319,0.16-0.64,0.24-0.96c0.08,0,0.159,0,0.239,0c0-0.24,0-0.479,0-0.72c0.079,0,0.16,0,0.239,0
			c0-0.16,0-0.32,0-0.48c0.08,0,0.16,0,0.24,0c0-0.159,0-0.319,0-0.479c0.159-0.08,0.319-0.16,0.479-0.24
			c0.08-0.32,0.16-0.64,0.239-0.96c0.08,0,0.16,0,0.24,0c0.08-0.24,0.159-0.479,0.239-0.72c0.16-0.08,0.32-0.16,0.479-0.24
			c0-0.16,0-0.32,0-0.48c0.32-0.239,0.641-0.479,0.961-0.72c0.927-0.933,1.754-2.165,2.88-2.88c0.159,0,0.319,0,0.479,0
			c0-0.08,0-0.16,0-0.24c0.159,0,0.319,0,0.479,0c0-0.08,0-0.16,0-0.239c0.159,0,0.319,0,0.479,0c0-0.08,0-0.16,0-0.24
			c0.159,0,0.319,0,0.479,0c0-0.08,0-0.16,0-0.24c0.159,0,0.319,0,0.479,0c0-0.08,0-0.16,0-0.24c0.319,0,0.641,0,0.96,0
			c0-0.08,0-0.16,0-0.239c1.148-0.391,5.336-0.4,6.479,0c0,0.079,0,0.159,0,0.239c0.656,0.243,1.374,0.146,1.92,0.48
			c3.718,2.272,6.531,7.381,6.479,13.439c-8.64,0-17.28,0-25.92,0C295.787,36.182,296.271,35.249,296.64,34.32z M373.68,63.84
			c-0.16,0-0.32,0-0.479,0c-0.239,0.32-0.479,0.64-0.72,0.96c-0.24,0.08-0.48,0.16-0.721,0.24c-0.08,0.16-0.16,0.318-0.24,0.479
			c-0.159,0-0.319,0-0.479,0c-0.079,0.16-0.159,0.32-0.239,0.48c-0.24,0.08-0.479,0.16-0.721,0.24c0,0.078,0,0.159,0,0.238
			c-0.319,0.08-0.641,0.16-0.96,0.24c-0.079,0.16-0.159,0.32-0.239,0.48c-0.16,0-0.32,0-0.479,0c0,0.078,0,0.159,0,0.238
			c-0.16,0-0.32,0-0.479,0c0,0.08,0,0.16,0,0.24c-0.24,0-0.479,0-0.721,0c0,0.08,0,0.16,0,0.24c-0.16,0-0.319,0-0.479,0
			c0,0.08,0,0.16,0,0.24c-0.399,0.079-0.8,0.159-1.2,0.238c0,0.08,0,0.16,0,0.24c-0.319,0-0.64,0-0.96,0
			c-3.557,1.218-7.199,0.802-10.079-0.72c-0.32-0.08-0.641-0.16-0.961-0.24c-0.079-0.16-0.159-0.319-0.239-0.479
			c-6.452-4.333-8.578-12.54-8.399-23.521c11.599,0,23.2,0,34.8,0c0.003-5.904-0.331-11.488-2.16-15.6c-0.079,0-0.159,0-0.239,0
			c-0.16-0.48-0.319-0.96-0.479-1.44c-0.08,0-0.16,0-0.24,0c-0.159-0.479-0.319-0.96-0.479-1.44c-0.079,0-0.159,0-0.239,0
			c-0.08-0.239-0.16-0.479-0.24-0.72c-0.16-0.08-0.319-0.16-0.479-0.24c0-0.159,0-0.319,0-0.479c-0.159-0.08-0.319-0.16-0.479-0.24
			c0-0.16,0-0.32,0-0.479c-0.319-0.24-0.64-0.48-0.96-0.721c0-0.159,0-0.319,0-0.479c-0.479-0.4-0.96-0.8-1.439-1.2
			c-0.08-0.16-0.159-0.32-0.239-0.479c-0.16,0-0.32,0-0.48,0c-0.159-0.24-0.319-0.48-0.479-0.721c-0.16,0-0.32,0-0.48,0
			c-0.159-0.24-0.319-0.479-0.479-0.72c-0.32-0.08-0.642-0.16-0.96-0.24c0-0.08,0-0.16,0-0.24c-0.16,0-0.32,0-0.48,0
			c0-0.079,0-0.159,0-0.239c-0.479-0.16-0.96-0.32-1.439-0.48c0-0.08,0-0.16,0-0.24c-0.479-0.08-0.96-0.159-1.439-0.239
			c0-0.08,0-0.16,0-0.24c-0.319,0-0.64,0-0.96,0c0-0.08,0-0.16,0-0.24c-0.319,0-0.64,0-0.96,0c-2.087-0.665-5.59-0.622-7.68,0
			c-0.4,0-0.802,0-1.2,0c0,0.08,0,0.16,0,0.24c-0.32,0-0.641,0-0.96,0c0,0.08,0,0.16,0,0.24c-0.24,0-0.48,0-0.721,0
			c0,0.08,0,0.159,0,0.239c-0.239,0-0.479,0-0.721,0c0,0.08,0,0.16,0,0.24c-0.239,0-0.479,0-0.72,0c0,0.08,0,0.16,0,0.24
			c-0.479,0.16-0.96,0.32-1.439,0.479c0,0.08,0,0.16,0,0.24c-0.319,0.08-0.641,0.16-0.96,0.24c-0.08,0.16-0.16,0.32-0.24,0.479
			c-0.159,0-0.319,0-0.479,0c-0.08,0.16-0.16,0.32-0.239,0.48c-0.16,0-0.319,0-0.479,0c-0.16,0.24-0.32,0.48-0.48,0.72
			c-0.159,0-0.319,0-0.479,0c-0.561,0.641-1.12,1.28-1.681,1.92c-0.319,0.24-0.641,0.48-0.96,0.721c0,0.159,0,0.319,0,0.479
			c-0.319,0.24-0.641,0.48-0.96,0.72c0,0.16,0,0.32,0,0.48c-0.16,0.08-0.319,0.16-0.479,0.24c-0.08,0.239-0.16,0.479-0.24,0.72
			c-0.08,0-0.16,0-0.239,0c0,0.16,0,0.32,0,0.48c-0.16,0.079-0.319,0.159-0.479,0.239c-0.08,0.32-0.16,0.641-0.24,0.96
			c-0.16,0.08-0.32,0.16-0.479,0.24c-0.079,0.32-0.159,0.64-0.239,0.96c-0.08,0-0.16,0-0.24,0c-0.16,0.48-0.32,0.96-0.479,1.44
			c-0.079,0-0.159,0-0.239,0c0,0.239,0,0.479,0,0.72c-0.08,0-0.16,0-0.24,0c0,0.16,0,0.32,0,0.479c-0.08,0-0.16,0-0.24,0
			c0,0.24,0,0.48,0,0.721c-0.079,0-0.16,0-0.239,0c0,0.16,0,0.319,0,0.479c-0.079,0-0.159,0-0.239,0c-0.08,0.48-0.16,0.96-0.24,1.44
			c-0.08,0-0.16,0-0.24,0c0,0.32,0,0.64,0,0.96c-0.079,0-0.16,0-0.239,0c0,0.24,0,0.479,0,0.72c-0.079,0-0.159,0-0.239,0
			c0,0.32,0,0.641,0,0.96c-0.08,0-0.16,0-0.24,0c0,0.4,0,0.8,0,1.2c-0.08,0-0.16,0-0.24,0c0,0.48,0,0.96,0,1.44
			c-0.08,0-0.16,0-0.239,0c0,0.56,0,1.119,0,1.68c-0.535,1.871-0.819,6.789-0.239,8.88c0,0.88,0,1.761,0,2.641
			c0.08,0,0.16,0,0.239,0c0,0.561,0,1.119,0,1.681c0.079,0,0.159,0,0.239,0c0,0.479,0,0.96,0,1.438c0.722,2.32,1.44,4.642,2.16,6.96
			c0.08,0,0.16,0,0.24,0c0.16,0.48,0.319,0.96,0.479,1.44c0.08,0,0.16,0,0.24,0c0.16,0.479,0.32,0.96,0.48,1.439
			c0.079,0,0.159,0,0.238,0c0.08,0.239,0.16,0.479,0.24,0.721c0.16,0.08,0.32,0.16,0.48,0.239c0.08,0.319,0.159,0.641,0.239,0.96
			c0.239,0.16,0.479,0.319,0.721,0.479c0,0.16,0,0.32,0,0.479c0.318,0.239,0.64,0.479,0.96,0.721c0,0.16,0,0.319,0,0.479
			c0.64,0.562,1.279,1.12,1.92,1.682c0.16,0.239,0.319,0.479,0.479,0.72c0.16,0,0.32,0,0.48,0c0.16,0.24,0.319,0.479,0.479,0.72
			c0.16,0,0.32,0,0.48,0c0.08,0.16,0.16,0.32,0.24,0.48c0.158,0,0.318,0,0.479,0c2.747,1.814,5.721,3.118,10.32,3.12
			c1.2,0,2.399,0,3.6,0c0-0.08,0-0.16,0-0.24c0.48,0,0.96,0,1.44,0c0-0.08,0-0.16,0-0.24c0.398,0,0.8,0,1.2,0c0-0.08,0-0.16,0-0.24
			c0.318,0,0.64,0,0.96,0c0-0.079,0-0.159,0-0.238c0.479-0.08,0.96-0.16,1.438-0.24c0-0.08,0-0.16,0-0.24c0.16,0,0.32,0,0.48,0
			c0-0.08,0-0.16,0-0.24c0.239,0,0.479,0,0.72,0c0-0.079,0-0.159,0-0.238c0.479-0.16,0.96-0.32,1.439-0.48c0-0.08,0-0.16,0-0.24
			c0.159,0,0.319,0,0.479,0c0-0.079,0-0.16,0-0.238c0.16,0,0.32,0,0.48,0c0-0.08,0-0.16,0-0.24c0.479-0.16,0.96-0.32,1.438-0.48
			c0.08-0.16,0.16-0.318,0.24-0.479c0.32-0.08,0.64-0.16,0.96-0.24c0-0.08,0-0.16,0-0.24c0.24-0.08,0.479-0.16,0.72-0.238
			c0.08-0.16,0.16-0.32,0.24-0.48c0.16,0,0.32,0,0.479,0c0.159-0.24,0.319-0.479,0.479-0.72c0.16,0,0.32,0,0.479,0
			c0.159-0.24,0.319-0.48,0.479-0.722c0.16,0,0.32,0,0.479,0c0.152-0.103,0.182-0.316,0.479-0.479c0-3.04,0-6.08,0-9.12
			c-1.2,1.12-2.399,2.24-3.6,3.36C374,63.359,373.84,63.6,373.68,63.84z M347.039,33.12c0-0.24,0-0.48,0-0.721c0.08,0,0.16,0,0.24,0
			c0-0.159,0-0.319,0-0.479c0.08,0,0.16,0,0.239,0c0-0.16,0-0.32,0-0.48c0.08,0,0.16,0,0.24,0c0.08-0.319,0.16-0.64,0.239-0.96
			c0.16-0.08,0.32-0.16,0.48-0.239c0-0.16,0-0.32,0-0.48c0.079,0,0.159,0,0.239,0c0.08-0.24,0.16-0.479,0.239-0.72
			c0.16-0.08,0.32-0.16,0.48-0.24c0-0.16,0-0.32,0-0.48c0.399-0.319,0.8-0.64,1.199-0.96c0-0.159,0-0.319,0-0.479
			c0.08,0,0.16,0,0.24,0c0.079-0.16,0.159-0.32,0.239-0.48c0.16,0,0.319,0,0.479,0c0.32-0.399,0.641-0.8,0.96-1.199
			c0.16,0,0.32,0,0.479,0c0.08-0.16,0.16-0.32,0.24-0.48c0.319-0.08,0.641-0.16,0.96-0.24c0.08-0.16,0.16-0.319,0.24-0.479
			c0.239,0,0.479,0,0.72,0c0-0.08,0-0.16,0-0.24c0.159,0,0.319,0,0.479,0c0-0.08,0-0.16,0-0.24c0.733-0.314,5.229-0.851,6.479-0.479
			c0,0.08,0,0.16,0,0.24c0.319,0,0.641,0,0.96,0c0,0.079,0,0.159,0,0.239c0.24,0,0.479,0,0.721,0c0,0.08,0,0.16,0,0.24
			c0.159,0,0.319,0,0.479,0c0,0.08,0,0.16,0,0.24c0.239,0,0.479,0,0.72,0c0,0.08,0,0.16,0,0.24c0.24,0.079,0.479,0.159,0.721,0.239
			c0.08,0.16,0.159,0.32,0.239,0.48c0.16,0,0.32,0,0.48,0c0.159,0.24,0.319,0.479,0.479,0.72c0.399,0.32,0.801,0.64,1.2,0.96
			c0,0.16,0,0.32,0,0.48c0.24,0.16,0.479,0.319,0.72,0.479c0.08,0.32,0.16,0.641,0.24,0.96c0.16,0.08,0.319,0.16,0.479,0.24
			c0,0.16,0,0.32,0,0.48c0.08,0,0.16,0,0.239,0c0,0.239,0,0.479,0,0.72c0.08,0,0.16,0,0.24,0c0,0.16,0,0.319,0,0.479
			c0.08,0,0.16,0,0.24,0c0.08,0.48,0.16,0.96,0.239,1.44c0.08,0,0.16,0,0.239,0c0,0.32,0,0.64,0,0.96c0.08,0,0.16,0,0.24,0
			c0,0.32,0,0.64,0,0.96c0.08,0,0.16,0,0.24,0c0,0.64,0,1.28,0,1.92c0.08,0,0.16,0,0.239,0c-0.001,0.742-0.07,1.232-0.239,1.68
			c-8.56,0-17.121,0-25.681,0C345.75,35.74,346.491,34.375,347.039,33.12z M245.52,20.16c0,0.479,0,0.96,0,1.439
			c-0.325,1.079-0.624,2.766-0.96,3.84c0,0.4,0,0.801,0,1.2c-0.484,1.583-0.722,3.71-1.199,5.28c0,0.479,0,0.96,0,1.439
			c-0.08,0-0.159,0-0.239,0c0,0.4,0,0.801,0,1.2c-0.08,0-0.16,0-0.24,0c0,0.48,0,0.96,0,1.44c-0.08,0-0.16,0-0.24,0
			c-0.079,0.88-0.16,1.76-0.239,2.64c-1.22,4.021-1.409,8.936-2.641,12.96c-0.08,0.96-0.16,1.92-0.24,2.88
			c-0.65,2.178-0.792,5.022-1.438,7.2c-0.316,1.064,0.12,2.638-0.48,3.36c0,0.08,0,0.16,0,0.24c-0.079,0-0.16,0-0.239,0
			c-0.159-1.12-0.319-2.24-0.479-3.36c-0.824-2.63-1.11-6.006-1.92-8.64c0-0.48,0-0.961,0-1.44
			c-1.614-5.284-2.146-11.365-3.84-16.56c-0.24-1.521-0.48-3.04-0.721-4.561c-0.08,0-0.159,0-0.239,0
			c-0.08-0.72-0.16-1.439-0.24-2.16c-0.08,0-0.16,0-0.24,0c0-0.319,0-0.64,0-0.96c-0.08,0-0.16,0-0.239,0
			c-0.08-0.72-0.159-1.439-0.239-2.16c-0.08,0-0.16,0-0.24,0c0-0.399,0-0.8,0-1.199c-0.08,0-0.16,0-0.24,0c0-0.32,0-0.641,0-0.96
			c-0.08,0-0.16,0-0.239,0c0-0.4,0-0.801,0-1.2c-0.08,0-0.16,0-0.239,0c0-0.4,0-0.8,0-1.2c-0.287-0.882-0.698-1.922-0.722-3.12
			c-0.079,0-0.159,0-0.238,0c0-0.08,0-0.16,0-0.24c-2.32,0-4.642,0-6.961,0c-2.88,16.318-5.761,32.642-8.641,48.959
			c-0.554-0.583-0.206-1.288-0.479-2.159c-0.08,0-0.16,0-0.24,0c0-0.399,0-0.801,0-1.199c-0.08,0-0.16,0-0.24,0
			c0-0.48,0-0.96,0-1.44c-0.713-2.344-0.962-5.338-1.68-7.68c0-0.48,0-0.96,0-1.44c-2.399-11.679-4.8-23.36-7.2-35.04
			c-2.64,0-5.28,0-7.92,0c4.64,19.118,9.28,38.242,13.92,57.36c2.4,0,4.801,0,7.2,0c0.398-2.399,0.8-4.8,1.2-7.2
			c0.079,0,0.159,0,0.239,0c0.079-0.8,0.159-1.6,0.239-2.398c0.565-1.814,0.872-4.188,1.44-6c0.159-1.28,0.318-2.562,0.479-3.842
			c1.407-4.506,1.737-9.882,3.12-14.398c0.64-4.16,1.28-8.32,1.92-12.48c0-0.16,0-0.319,0-0.479c0.08,0,0.16,0,0.24,0
			c0.068,1.916,0.489,3.973,0.96,5.52c0.16,1.28,0.32,2.562,0.479,3.84c0.694,2.207,1.222,4.803,1.92,6.96
			c0.16,1.2,0.319,2.4,0.479,3.601c1.229,3.796,1.644,8.446,2.88,12.24c0.16,1.198,0.32,2.398,0.48,3.6c0.08,0,0.159,0,0.239,0
			c0.079,0.72,0.16,1.44,0.239,2.16c0.08,0,0.16,0,0.24,0c0,0.398,0,0.8,0,1.2c0.08,0,0.16,0,0.24,0c0,0.398,0,0.8,0,1.198
			c0.08,0,0.159,0,0.239,0c0,0.32,0,0.642,0,0.96c0.08,0,0.16,0,0.239,0c0,0.4,0,0.802,0,1.2c0.389,1.219,0.933,2.813,0.96,4.32
			c2.32,0,4.642,0,6.961,0c0.111-0.999,0.47-1.863,0.721-2.64c0-0.4,0-0.802,0-1.2c0.079,0,0.159,0,0.239,0c0-0.32,0-0.642,0-0.96
			c0.079,0,0.159,0,0.239,0c0-0.32,0-0.642,0-0.96c0.08,0,0.16,0,0.24,0c0-0.4,0-0.802,0-1.2c0.08,0,0.16,0,0.24,0
			c0-0.32,0-0.642,0-0.96c0.079,0,0.159,0,0.239,0c0-0.32,0-0.642,0-0.96c0.079,0,0.16,0,0.239,0c0-0.4,0-0.801,0-1.2
			c0.808-2.515,1.347-5.647,2.16-8.16c0-0.398,0-0.8,0-1.2c0.08,0,0.16,0,0.24,0c0-0.318,0-0.64,0-0.96c0.08,0,0.16,0,0.239,0
			c0-0.398,0-0.8,0-1.198c0.08,0,0.16,0,0.239,0c0.16-1.04,0.32-2.08,0.48-3.12c1.681-5.225,2.381-11.333,4.08-16.562
			c0.08-0.72,0.159-1.439,0.239-2.16c0.983-2.902,1.41-6.459,2.399-9.359c0-0.32,0-0.641,0-0.96c0.08,0,0.16,0,0.24,0
			c0-0.4,0-0.801,0-1.2c0.08,0,0.16,0,0.239,0c0.259-0.774,0.02-1.611,0.479-2.16c0-0.08,0-0.16,0-0.24c-2.56,0-5.12,0-7.68,0
			C245.969,18.721,245.772,19.329,245.52,20.16z M42.72,44.64c-0.697,0.721-0.321,1.818-0.24,2.88c0.48,0.562,0.96,1.12,1.44,1.682
			c0.401,0.276,0.547,0,0.96,0.479c1.355,0.035,2.593,0.081,3.12-0.72c0.16,0,0.319,0,0.479,0c0.4-0.72,0.8-1.44,1.2-2.16
			c0.009-1.164-0.104-2.113-0.72-2.64c-0.375-1.486-2.12-1.755-4.08-1.681c0,0.08,0,0.16,0,0.24c-0.24,0-0.48,0-0.72,0
			c0,0.08,0,0.16,0,0.24c-0.48,0.399-0.96,0.8-1.44,1.2C42.72,44.32,42.72,44.48,42.72,44.64z"/>
	</defs>
	<clipPath id="SVGID_2_">
		<use xlink:href="#SVGID_1_"  overflow="visible"/>
	</clipPath>
	<g transform="matrix(1 0 0 1 0 0)" clip-path="url(#SVGID_2_)">
		
			<image overflow="visible" enable-background="new    " width="1600" height="383" id="SAWTEE_logo_x5F_Export_Wizard-1_xA0_Image" xlink:href="E2B1FDE8.jpeg"  transform="matrix(0.24 0 0 0.2394 2.441406e-004 2.441406e-004)">
		</image>
	</g>
</g>
</svg>
